/* XPM */
static char *_645014162343[] = {
/* columns rows colors chars-per-pixel */
"64 64 131 2 ",
"   c gray20",
".  c #353535",
"X  c #676767",
"o  c #E54728",
"O  c #E64728",
"+  c #E64828",
"@  c #E64A28",
"#  c #E64D29",
"$  c #E64E29",
"%  c #E74E29",
"&  c #E84928",
"*  c #E94928",
"=  c #EA4A28",
"-  c #EB4B28",
";  c #EC4C28",
":  c #ED4C28",
">  c #EE4D28",
",  c #EF4D28",
"<  c #EF4E28",
"1  c #F04E28",
"2  c #F14F28",
"3  c #E7522A",
"4  c #E8532A",
"5  c #E8562A",
"6  c #E8592B",
"7  c #E95C2B",
"8  c #E95E2C",
"9  c #E95F2C",
"0  c #F25028",
"q  c #F35028",
"w  c #F45128",
"e  c #F55128",
"r  c #F45328",
"t  c #F65228",
"y  c #F75328",
"u  c #F85328",
"i  c #F95428",
"p  c #F95528",
"a  c #F95728",
"s  c #F95829",
"d  c #F95A29",
"f  c #F95B29",
"g  c #F95D2A",
"h  c #F95E2A",
"j  c #F9602A",
"k  c #F9642B",
"l  c #F9662C",
"z  c #F9682C",
"x  c #F96B2C",
"c  c #F96C2C",
"v  c #ED722F",
"b  c #F87A2F",
"n  c #EF7E30",
"m  c #F87D30",
"M  c #F08632",
"N  c #F88130",
"B  c #F88230",
"V  c #F88531",
"C  c #F18832",
"Z  c #F28832",
"A  c #F18A33",
"S  c #F18F33",
"D  c #F88932",
"F  c #F88A32",
"G  c #F88E33",
"H  c #F29134",
"J  c #F39434",
"K  c #F39635",
"L  c #F89233",
"P  c #F89634",
"I  c #F39935",
"U  c #F49B35",
"Y  c #F79B35",
"T  c #F49F36",
"R  c #F89935",
"E  c #F89B35",
"W  c #F5A336",
"Q  c #F7A336",
"!  c #F5A537",
"~  c #F7A436",
"^  c #F5A637",
"/  c #F5A737",
"(  c #F7A737",
")  c #F6AA38",
"_  c #F7AB38",
"`  c #F7AC38",
"'  c #F7AD38",
"]  c #F7AE38",
"[  c #F7B039",
"{  c #F7B139",
"}  c #F7B239",
"|  c #F7B23A",
" . c #F7B33C",
".. c #F7B43F",
"X. c #F7B440",
"o. c #F7B644",
"O. c #F7B645",
"+. c #F7B94E",
"@. c #F7BA50",
"#. c #F6BD58",
"$. c #F6BE5A",
"%. c #F6BF5D",
"&. c #F6C268",
"*. c #F5CA7F",
"=. c gray55",
"-. c #9D9D9D",
";. c gray71",
":. c gray74",
">. c #F5CD86",
",. c #F5D08E",
"<. c #F5D192",
"1. c #F5D294",
"2. c #F5D49C",
"3. c #F5D59D",
"4. c #F4D8A8",
"5. c #F4DBAF",
"6. c #F4DBB0",
"7. c #F4DFB9",
"8. c #F3E6D0",
"9. c #F3E8D4",
"0. c #F3E9D7",
"q. c #F3ECDF",
"w. c gray90",
"e. c #EFEFEF",
"r. c #F2EDE3",
"t. c #F2EDE4",
"y. c #F2F0EB",
"u. c #F2F1EF",
"i. c #F2F2F1",
"p. c gray95",
"a. c None",
/* pixels */
"a.a.a.a.a.a.a.a.a.a.a.a.a.a.a.a.a.a.a.a.a.a.a.a.a.a.a.a.a.a.a.a.a.a.a.a.a.a.a.a.a.a.a.a.a.a.a.a.a.a.a.a.a.a.a.a.a.a.a.a.a.a.a.a.",
"a.a.a.a.a.a.a.a.a.a.a.a.a.a.a.a.a.a.a.a.a.a.a.a.a.a.a.a.a.a.a.a.a.a.a.a.a.a.a.a.a.a.a.a.a.a.a.a.a.a.a.a.a.a.a.a.a.a.a.a.a.a.a.a.",
"a.a.a.a.a.a.a.a.a.a.a.a.a.a.a.a.a.a.a.a.a.a.a.a.a.a.a.a.a.a.a.a.a.a.a.a.a.a.a.a.a.a.a.a.a.a.a.a.a.a.a.a.a.a.a.a.a.a.a.a.a.a.a.a.",
"a.a.a.a.a.a.a.a.a.a.a.a.a.a.a.a.a.a.a.a.a.a.a.a.a.a.a.a.a.a.a.a.a.a.a.a.a.a.a.a.a.a.a.a.a.a.a.a.a.a.a.a.a.a.a.a.a.a.a.a.a.a.a.a.",
"a.a.a.a.a.a.a.a.a.a.a.a.a.a.a.a.a.a.a.a.a.a.a.a.a.a.a.a.a.a.a.a.a.a.a.a.a.a.a.a.a.a.a.a.a.a.a.a.a.a.a.a.a.a.a.a.a.a.a.a.a.a.a.a.",
"a.a.a.a.a.a.a.a.a.a.a.a.a.a.a.a.a.a.a.a.a.a.a.a.a.a.a.a.a.a.a.a.a.a.a.a.a.a.a.a.a.a.a.a.a.a.a.a.a.a.a.a.a.a.a.a.a.a.a.a.a.a.a.a.",
"a.a.a.a.a.a.a.a.a.a.a.a.a.a.a.a.a.a.a.a.a.a.a.a.a.a.a.a.a.a.a.a.a.a.a.a.a.a.a.a.a.a.a.a.a.a.a.a.a.a.a.a.a.a.a.a.a.a.a.a.a.a.a.a.",
"a.a.a.a.a.a.a.a.a.a.a.a.a.a.a.a.a.a.a.a.a.a.a.a.a.a.a.a.a.a.a.a.a.a.a.a.a.a.a.a.a.a.a.a.a.a.a.a.a.a.a.a.a.a.a.a.a.a.a.a.a.a.a.a.",
"a.a.a.a.a.a.a.a.a.a.a.a.a.a.a.a.a.a.a.a.a.a.a.a.a.a.a.a.a.a.a.a.a.a.a.a.a.a.a.a.a.a.a.a.a.a.a.a.a.a.a.a.a.a.a.a.a.a.a.a.a.a.a.a.",
"a.a.a.a.a.a.a.a.a.a.a.a.a.a.a.a.a.a.a.a.a.a.a.a.a.a.a.a.a.a.a.a.a.a.a.a.a.a.a.a.a.a.a.a.a.a.a.a.a.a.a.a.a.a.a.a.a.a.a.a.a.a.a.a.",
"a.a.a.a.a.a.a.a.a.a.a.a.a.a.a.a.a.a.a.a.a.a.a.a.a.a.a.a.a.a.a.a.a.a.a.a.a.a.a.a.a.a.a.a.a.a.a.a.a.a.a.a.a.a.a.a.a.a.a.a.a.a.a.a.",
"a.a.a.a.a.a.a.a.a.a.a.a.a.a.a.a.a.a.a.a.a.a.a.a.a.a.a.a.a.a.a.a.a.a.a.a.a.a.a.a.a.a.a.a.a.a.a.a.a.a.a.a.a.a.a.a.a.a.a.a.a.a.a.a.",
"a.a.a.a.a.a.a.a.a.a.a.a.a.a.a.a.a.a.a.a.a.a.a.a.a.a.a.a.a.a.a.a.a.a.a.a.a.a.a.a.a.a.a.a.a.a.a.a.a.a.a.a.a.a.a.a.a.a.a.a.a.a.a.a.",
"a.a.a.a.a.a.a.a.a.a.a.a.a.a.a.a.a.a.a.a.a.a.a.a.a.a.a.a.a.a.a.} } } } } a.a.a.a.a.a.a.a.a.a.a.a.a.a.a.a.a.a.a.a.a.a.a.a.a.a.a.a.",
"a.a.a.a.a.a.a.a.a.a.a.a.a.a.a.a.a.a.a.a.a.a.a.a.a.a.a.a.a.a.} } } } } } } } } a.a.a.a.a.a.a.a.a.a.a.a.a.a.a.a.a.a.a.a.a.a.a.a.a.",
"a.a.a.a.a.a.a.a.a.a.a.a.a.a.a.a.a.a.a.a.a.a.a.a.a.a.a.a.a.a.} } } } } } } } } } a.a.a.a.a.a.a.a.a.a.a.a.a.a.a.a.a.a.a.a.a.a.a.a.",
"a.a.a.a.a.a.a.a.a.a.a.a.a.a.a.a.a.a.a.a.a.a.a.a.a.a.a.a.a.a.} } } } } } } } } } } } a.a.a.a.a.a.a.a.a.a.a.a.a.a.a.a.a.a.a.a.a.a.",
"a.a.a.a.a.a.a.a.a.a.a.a.a.a.a.a.a.a.a.a.a.a.a.a.a.a.a.a.a.a.a.} } } } } } } } } } } } a.a.a.a.a.a.a.a.a.a.a.a.a.a.a.a.a.a.a.a.a.",
"} } } } } a.a.a.a.a.a.a.a.a.a.a.a.a.a.a.a.a.a.a.a.a.a.a.a.a.a.} } } } } } } } } } } } a.a.a.a.a.a.a.a.a.a.a.a.a.a.a.a.a.a.a.a.a.",
"} } } } } } } } a.a.a.a.a.a.a.a.a.a.a.a.a.a.a.a.a.a.a.a.a.a.a.} } } } } } } } } } } } } a.a.a.a.a.a.a.a.a.a.a.a.a.a.a.a.a.a.a.a.",
"} } } } } } } } } } a.a.a.a.a.a.a.a.a.a.a.a.a.a.a.a.a.a.a.a.a.} } } ) U H A M C S K ! } } a.a.a.a.a.a.a.a.a.a.a.a.a.a.a.a.a.a.a.",
"} } } } } } } } } } } a.a.a.a.a.a.a.a.a.a.a.a.a.a.a.a.a.a.a.a.3 9 $ o O O O O o O * , w E } a.a.a.a.a.a.a.a.a.a.a.a.a.a.a.a.a.a.",
"} } } } } } } } } } } } a.a.a.a.a.a.a.a.a.a.a.a.a.a.a.a.O O o o o o o o O O * 2 u p p c } } } } } a.a.a.a.a.a.a.a.a.a.a.a.a.a.a.",
"} } } } } } } } } } } } } a.a.a.a.a.a.a.a.a.a.a.a.a.O o o O o o o o o o * 2 u u u u u E } } } } } } } } a.a.a.a.a.a.a.a.a.a.a.a.",
"a.} } } } } } } } } } } } a.a.a.a.a.a.a.a.a.a.O O o o o o o o o o o : 2 i i i i i i z } } } } } } } } } } } a.a.a.a.a.a.a.a.a.a.",
"a.} } } } } } } } } } } } } a.a.a.a.a.a.a.a.O O o o o o o o o o @ 0 p u i i i i u p L } } } } } } } } } } } } } a.a.a.a.a.a.a.a.",
"a.} } } } } } } } } } } } } a.a.a.a.a.a.O o o o o o o o O O O : w p u p i i i i u p ` } } } } } } } } } } } } } } a.a.a.a.a.a.a.",
"a.a.} } } } } } } } } } } } } a.a.a.a.O o o o o o o o o O O , i p u p u i i i i p x } } } } } } } } } } } } } } } } a.a.a.a.a.a.",
"a.a.a.} } } } } } } } } } } } a.a.a.o o o o o o o o O O O 2 i i i i i i i i i i u F } } } } } } } } } } } } } } } } } } a.a.a.a.",
"a.a.a.} } } } } } } } } } } } a.a.O o o o o o o o o O @ w u i i i i i i i i i i p E } } } } } +.6.q.y.0.2.X.} } } } } } } a.a.a.",
"a.a.a.a.} } } } } } } } } } } n O o o o o o o o o o O w p u p u i i i i i i i i u ( } } } } #.r.p.p.p.p.p.8.o.} } } } } } } a.a.",
"a.a.a.a.a.a.} } } } } } } } J @ O O o o o o o o o o 0 p u p u p i i i i i i i i u } } } } } 0.p.p.p.p.p.p.p.4.} } } } } } } } a.",
"a.a.a.a.a.a.a.a.} } } } ] W $ o o o o o o o o o o 2 i i i i i i i i i i i i i i f } } } } &.p.p.p.w.;.u.p.p.u.o.} } } } } } } a.",
"a.a.a.a.a.a.a.a.a.a.a.} } 7 o o o o o o o o o o : i i i i i i i i i i i i i i i g } } } } ,.p.p.p.X   -.p.p.p.%.} } } } } a.a.a.",
"a.a.a.a.a.a.a.a.a.} } } } v O o o o o o o o o o & y i i i i i i i i i i i i i i g } } } } >.p.p.i.=.. :.p.p.p.#.} } } } } } } a.",
"a.a.a.a.a.a.a.} } } } } } ] 8 O o o o o o o o o o = i i i i i i i i i i i i i i f } } } } @.p.p.i.i.u.p.p.p.r.} } } } } } } } a.",
"a.a.a.a.a.} } } } } } } } } ) 5 o o o o o o o o o o , i i i i i i i i i i i i i i ` } } } } 6.p.i.p.p.p.p.p.>.[ } } } } } } a.a.",
"a.a.a.a.} } } } } } } } } } } U o o o o o o o o o o & , i i i i i i i i i i i i i Q } } } } ..7.p.p.p.p.p.1.} } } } } } } a.a.a.",
"a.a.a.} } } } } } } } } } } } a.a.O o o o o o o o o o o , i i i i i i i i i i i i P } } } } } } &.2.6.1.#.} } } } } } } a.a.a.a.",
"a.a.} } } } } } } } } } } } } a.a.a.o o o o o o o o o o o : i i i i i i i i i i i B } } } } } } ] } } } } } } } } } } a.a.a.a.a.",
"a.a.} } } } } } } } } } } } } a.a.a.a.@ O O O o o o o o o o = y i c b B m f i i i l } } } } } } } } } } } } } } } } a.a.a.a.a.a.",
"a.} } } } } } } } } } } } } a.a.a.a.a.a.a.O o o o o o o o o $ A ` } } } } c i i i i ( } } } } } } } } } } } } } } a.a.a.a.a.a.a.",
"a.} } } } } } } } } } } } } a.a.a.a.a.a.a.a.O o o o O O o 7 ! } } } } } } c i i i i B } } } } } } } } } } } } a.a.a.a.a.a.a.a.a.",
"} } } } } } } } } } } } } a.a.a.a.a.a.a.a.a.a.a.o o o O 3 ! } } } } } } } k i i i i g } } } } } } } } } } a.a.a.a.a.a.a.a.a.a.a.",
"} } } } } } } } } } } } } a.a.a.a.a.a.a.a.a.a.a.a.a.O @ T } } } } } } } ` i i i i i i G } } } } } } } a.a.a.a.a.a.a.a.a.a.a.a.a.",
"} } } } } } } } } } } } a.a.a.a.a.a.a.a.a.a.a.a.a.a.a.a.} } } } } } } } F i i i i i i j ` } } } } a.a.a.a.a.a.a.a.a.a.a.a.a.a.a.",
"} } } } } } } } } } a.a.a.a.a.a.a.a.a.a.a.a.a.a.a.a.a.} } } } } } } } } g i i i i i i i a.a.a.a.a.a.a.a.a.a.a.a.a.a.a.a.a.a.a.a.",
"} } } } } } } } } a.a.a.a.a.a.a.a.a.a.a.a.a.a.a.a.a.a.} } } } } } } } a.a.a.a.a.a.a.a.a.a.a.a.a.a.a.a.a.a.a.a.a.a.a.a.a.a.a.a.a.",
"} } } } } } } a.a.a.a.a.a.a.a.a.a.a.a.a.a.a.a.a.a.a.a.} } } } } } } a.a.a.a.a.a.a.a.a.a.a.a.a.a.a.a.a.a.a.a.a.a.a.a.a.a.a.a.a.a.",
"a.a.a.a.a.a.a.a.a.a.a.a.a.a.a.a.a.a.a.a.a.a.a.a.a.a.a.} } } } } } a.a.a.a.a.a.a.a.a.a.a.a.a.a.a.a.a.a.a.a.a.a.a.a.a.a.a.a.a.a.a.",
"a.a.a.a.a.a.a.a.a.a.a.a.a.a.a.a.a.a.a.a.a.a.a.a.a.a.a.} } } } a.a.a.a.a.a.a.a.a.a.a.a.a.a.a.a.a.a.a.a.a.a.a.a.a.a.a.a.a.a.a.a.a.",
"a.a.a.a.a.a.a.a.a.a.a.a.a.a.a.a.a.a.a.a.a.a.a.a.a.a.a.a.a.a.a.a.a.a.a.a.a.a.a.a.a.a.a.a.a.a.a.a.a.a.a.a.a.a.a.a.a.a.a.a.a.a.a.a.",
"a.a.a.a.a.a.a.a.a.a.a.a.a.a.a.a.a.a.a.a.a.a.a.a.a.a.a.a.a.a.a.a.a.a.a.a.a.a.a.a.a.a.a.a.a.a.a.a.a.a.a.a.a.a.a.a.a.a.a.a.a.a.a.a.",
"a.a.a.a.a.a.a.a.a.a.a.a.a.a.a.a.a.a.a.a.a.a.a.a.a.a.a.a.a.a.a.a.a.a.a.a.a.a.a.a.a.a.a.a.a.a.a.a.a.a.a.a.a.a.a.a.a.a.a.a.a.a.a.a.",
"a.a.a.a.a.a.a.a.a.a.a.a.a.a.a.a.a.a.a.a.a.a.a.a.a.a.a.a.a.a.a.a.a.a.a.a.a.a.a.a.a.a.a.a.a.a.a.a.a.a.a.a.a.a.a.a.a.a.a.a.a.a.a.a.",
"a.a.a.a.a.a.a.a.a.a.a.a.a.a.a.a.a.a.a.a.a.a.a.a.a.a.a.a.a.a.a.a.a.a.a.a.a.a.a.a.a.a.a.a.a.a.a.a.a.a.a.a.a.a.a.a.a.a.a.a.a.a.a.a.",
"a.a.a.a.a.a.a.a.a.a.a.a.a.a.a.a.a.a.a.a.a.a.a.a.a.a.a.a.a.a.a.a.a.a.a.a.a.a.a.a.a.a.a.a.a.a.a.a.a.a.a.a.a.a.a.a.a.a.a.a.a.a.a.a.",
"a.a.a.a.a.a.a.a.a.a.a.a.a.a.a.a.a.a.a.a.a.a.a.a.a.a.a.a.a.a.a.a.a.a.a.a.a.a.a.a.a.a.a.a.a.a.a.a.a.a.a.a.a.a.a.a.a.a.a.a.a.a.a.a.",
"a.a.a.a.a.a.a.a.a.a.a.a.a.a.a.a.a.a.a.a.a.a.a.a.a.a.a.a.a.a.a.a.a.a.a.a.a.a.a.a.a.a.a.a.a.a.a.a.a.a.a.a.a.a.a.a.a.a.a.a.a.a.a.a.",
"a.a.a.a.a.a.a.a.a.a.a.a.a.a.a.a.a.a.a.a.a.a.a.a.a.a.a.a.a.a.a.a.a.a.a.a.a.a.a.a.a.a.a.a.a.a.a.a.a.a.a.a.a.a.a.a.a.a.a.a.a.a.a.a.",
"a.a.a.a.a.a.a.a.a.a.a.a.a.a.a.a.a.a.a.a.a.a.a.a.a.a.a.a.a.a.a.a.a.a.a.a.a.a.a.a.a.a.a.a.a.a.a.a.a.a.a.a.a.a.a.a.a.a.a.a.a.a.a.a.",
"a.a.a.a.a.a.a.a.a.a.a.a.a.a.a.a.a.a.a.a.a.a.a.a.a.a.a.a.a.a.a.a.a.a.a.a.a.a.a.a.a.a.a.a.a.a.a.a.a.a.a.a.a.a.a.a.a.a.a.a.a.a.a.a.",
"a.a.a.a.a.a.a.a.a.a.a.a.a.a.a.a.a.a.a.a.a.a.a.a.a.a.a.a.a.a.a.a.a.a.a.a.a.a.a.a.a.a.a.a.a.a.a.a.a.a.a.a.a.a.a.a.a.a.a.a.a.a.a.a.",
"a.a.a.a.a.a.a.a.a.a.a.a.a.a.a.a.a.a.a.a.a.a.a.a.a.a.a.a.a.a.a.a.a.a.a.a.a.a.a.a.a.a.a.a.a.a.a.a.a.a.a.a.a.a.a.a.a.a.a.a.a.a.a.a."
};
