/* XPM */
static char *d664517985374c31d34b295c7508ad83WeVXfEPQX4HDnXjz[] = {
/* columns rows colors chars-per-pixel */
"64 64 157 2 ",
"   c None",
".  c #1C2E5F",
"X  c #23335D",
"o  c #29375C",
"O  c #303C5B",
"+  c #001C63",
"@  c #052166",
"#  c #0A2365",
"$  c #072268",
"%  c #0B2569",
"&  c #0E286A",
"*  c #112760",
"=  c #142960",
"-  c #132D6C",
";  c #182F6B",
":  c #1B316D",
">  c #142D71",
",  c #163271",
"<  c #1C3573",
"1  c #1D3678",
"2  c #1E387A",
"3  c #203773",
"4  c #243A74",
"5  c #2A3E74",
"6  c #243D7D",
"7  c #3E4558",
"8  c #2B447C",
"9  c #304373",
"0  c #3D4C77",
"q  c #31457B",
"w  c #35497E",
"e  c #454957",
"r  c #414758",
"t  c #4E5055",
"y  c #535355",
"u  c #404F79",
"i  c #425279",
"p  c #4A577C",
"a  c #525E7F",
"s  c #646464",
"d  c #6A6A6A",
"f  c #727272",
"g  c #274080",
"h  c #2C4483",
"j  c #2F4887",
"k  c #314A86",
"l  c #3B4E81",
"z  c #364D8B",
"x  c #335087",
"c  c #39528D",
"v  c #3B588C",
"b  c #3E5491",
"n  c #445685",
"m  c #475886",
"M  c #495A87",
"N  c #4E5E8A",
"B  c #405692",
"V  c #435995",
"C  c #485E99",
"Z  c #54638C",
"A  c #58678E",
"S  c #5A6481",
"D  c #446293",
"F  c #496797",
"G  c #4C639D",
"H  c #576790",
"J  c #586790",
"K  c #5E6C92",
"L  c #53719E",
"P  c #6B7388",
"I  c #7A7F8D",
"U  c #767C8C",
"Y  c #667498",
"T  c #6D799A",
"R  c #727E9D",
"E  c #5267A1",
"W  c #556BA3",
"Q  c #5A6EA6",
"!  c #5977A1",
"~  c #5C7AA4",
"^  c #5E73AB",
"/  c #6176AC",
"(  c #6478AF",
")  c #677BB1",
"_  c #6A7EB4",
"`  c #2D86AD",
"'  c #3187AE",
"]  c #348AAF",
"[  c #74809F",
"{  c #4795B8",
"}  c #4E99BA",
"|  c #569FBE",
" . c #7580A0",
".. c #7B86A1",
"X. c #7E89A4",
"o. c #6E82B7",
"O. c #6F83B8",
"+. c #6D8CB1",
"@. c #7896B8",
"#. c #7A99BA",
"$. c #858585",
"%. c #80848F",
"&. c #8E8E8E",
"*. c #838691",
"=. c #858891",
"-. c #8C8E94",
";. c #8F9195",
":. c #919293",
">. c #999999",
",. c #828BA5",
"<. c #858EA8",
"1. c #8790A9",
"2. c #8A93AB",
"3. c #969CAD",
"4. c #999FAF",
"5. c #809FBE",
"6. c #939AB0",
"7. c #9DA3B3",
"8. c gray68",
"9. c #A6AAB6",
"0. c #A8ACB7",
"q. c #ADB2BD",
"w. c #B2B4BC",
"e. c #B6B8BF",
"r. c #84A4C2",
"t. c #8BABC7",
"y. c #91B1CB",
"u. c #9CBCD3",
"i. c #B1B5C1",
"p. c #B5B8C2",
"a. c #BBBDC2",
"s. c #BEC0C5",
"d. c #A1C1D6",
"f. c #A4C5DA",
"g. c #A7C8DB",
"h. c #ABCCDF",
"j. c #AECFE1",
"k. c #A7D0E2",
"l. c #ABD2E4",
"z. c #B2D4E5",
"x. c #B7D8E7",
"c. c #B7D9E8",
"v. c #B9DBEA",
"b. c #C0C2C7",
"n. c #C5C7CC",
"m. c #C2DFED",
"M. c #C2E0ED",
"N. c #D0E7F1",
"B. c #D5E9F2",
"V. c #EDF6FA",
"C. c #E8F3F8",
"Z. c #F0F7FA",
"A. c #F2F8FB",
"S. c #F5FAFC",
"D. c white",
"F. c #FCFEFE",
"G. c #F8FBFD",
/* pixels */
"                                                                                                                                ",
"                                                                                                                                ",
"                                                                                                                                ",
"                                                                                                                                ",
"                                                                                                                                ",
"                                                                                                                                ",
"                                                                                                                                ",
"                                                                                                                                ",
"                                                                                                                                ",
"                                                                                                                                ",
"                                                                                                                                ",
"                                                                                                                                ",
"                                                                                                                                ",
"                                                                                                                                ",
"                                                                                                                                ",
"                                                                                                                                ",
"                                                                                                                                ",
"                                                      + + + + + + + + + +                                                       ",
"                                                + + + @ + + + + + + + + + + +                                                   ",
"                                              + + + , L r.d.j.x.v.j.u.5.L - + + +                                               ",
"                                          + + + j t.c.v.v.A.A.v.v.v.v.v.v.v.r.8 + + +                                           ",
"                                        + + % r.v.N.S.Z.v.Z.A.v.v.v.v.v.v.v.v.v.@.% + +                                         ",
"                                      + + 6 f.v.C.D.D.V.v.v.v.v.v.v.v.v.v.v.v.v.v.u., + +                                       ",
"                                    + + < j.M.S.D.F.B.v.v.v.v.v.v.v.v.v.v.v.v.v.v.v.f., + +                                     ",
"                                    + + u.m.S.D.A.M.v.v.v.v.v.v.v.v.v.v.v.v.v.v.v.v.v.y.+ +                                     ",
"                                  + + ~ v.S.D.V.v.v.v.v.v.v.v.v.v.v.v.v.v.v.v.v.v.v.v.v.D + +                                   ",
"                                  + % h.v.Z.A.v.v.v.v.v.v.v.k.{ ] } l.v.v.v.v.v.v.v.v.v.g.% +                                   ",
"                            + + + + ! v.v.v.v.v.v.v.v.v.v.v.} ` ` ` | v.v.v.v.v.v.v.v.v.v.D + + + +                             ",
"                      + + + + + @ + + v d.v.v.v.v.v.v.v.v.z.` ` ` ` ' v.v.v.v.v.v.v.v.h.V + + % + + + + +                       ",
"                + + + + + 4 K 2.a.,.& + @ x #.z.v.v.v.v.v.z.` ` ` ` ` v.v.v.v.v.v.y.D % + # <.a.2.H 3 + + + + +                 ",
"            + + + + m 2.p.n.n.n.n.n.p.K $ + + $ h F +.t.d.j.` ` ` ` ' z.u.5.~ c - + + + N e.n.n.n.n.n.i.<.l + + + +             ",
"        + + + -  .i.n.n. .< # < R n.n.n.a.X.l + + + + + + + + + @ @ + + + + + + + < T i.n.n.R < # < X.a.s.n.i.T & + + +         ",
"        + + : w.b.n.n.n.% + + + & n.n.n.n.n.n.a.4...J l 4 - @ + + + @ - 5 n Y 2.i.n.b.s.b.n.& + + + & a.a.a.n.s.w.; + + +       ",
"      + + + % q.a.a.b.b.2.4 + 5 <.n.n.n.n.n.n.n.n.n.n.n.n.n.n.n.n.b.n.n.n.n.n.n.n.n.s.a.b.n.1.4 + 4 2.a.a.a.a.a.0.& + + +       ",
"      + z < + % M 4.a.a.a.a.b.n.n.n.n.n.n.n.n.n.n.n.n.n.n. .3 # < ,.n.n.n.n.n.n.n.n.n.n.s.n.s.a.s.e.e.s.a.a.4.n + + 6 6 + +     ",
"      + j ) k + + + 4 A 3.a.a.a.s.b.n.n.n.n.n.n.n.n.n.n.n.- + + + - n.n.n.n.n.n.n.n.n.n.n.b.a.a.a.s.e.3.Z 3 + + + z ) 6 + +     ",
"      + + C O.^ z & + + + % q A ..0.a.a.a.a.b.b.b.b.n.n.n.1.5 + 4 3.n.n.n.b.b.b.s.s.a.a.a.a.9...Z 9 % + + + & b ( O.V + +       ",
"        + + 6 ) o.o.W z > + + + + + % 3 w n K R <.6.7.w.w.a.a.a.a.a.p.p.w.7.4.<.T K m w < # + + + + + , c Q O._ ( 6 + +         ",
"          + + $ h Q O.O.O.) E b g & + + + + + + + + + + + + + + + + + + + + + + + + + + + + - g B E ) O._ _ ^ g + + +           ",
"            + + + + > z W o.o.O.O.O._ ^ E C b j 6 1 > & % % + + + + % % & > 1 8 j b C E / _ O.O.o.O.o.W z > + + + +             ",
"              + + # + + + % 1 k C / O.O.O.O.O.O.O.O.O.O.O.O.O.O.O.O.O.O.O.O.O.O.O.O.O.O.O.O.^ C j < $ + + + # + +               ",
"              + % :.U i + + + + + + @ > 2 h z V G Q ^ ) o.o.O.o.O.O.O._ ) ^ W G V z h 1 > @ + + + + + + p I :.# +               ",
"              + 0 >.>.u + +     + + + + + + + + + + + + + + + + + + + + + + + + + + + + + + + +     + + S >.>.5 +               ",
"            + + P >.=.@ +                     + + + + + + + + + + + + + + + + + +                     + @ =.>.S + +             ",
"            + + ;.>.9 + +                                 + # >.>.% +                                 + + u >.:.+ +             ",
"            + 5 >.*.+ +                                   + + :.:.+ +                                   + + %.>.3 +             ",
"          + + + ; ; +                                     + + *.I + +                                   + + ; ; + + +           ",
"        + + + + + + +                                     + + @ # + +                                     + + + + + + +         ",
"        + * r y r . +                                     + + + + + +                                   + + * e y r # + +       ",
"      + + e d >.d r + +                                 + + o y t o + +                                 + + e f >.d r + +       ",
"      + + y &.8.&.y + +                                 + . y :.&.y = +                                 + + y >.8.&.y + +       ",
"      + + e s :.s e + +                               + + O s 8.8.s X +                                 + + e d :.s r + +       ",
"        + # r y 7 # +                                   + . y $.$.y . +                                 + + # r y 7 # + +       ",
"        + + + + + + +                                   + + . y t X + +                                   + + + + + + +         ",
"            + + +                                         + + + + + +                                         + + +             ",
"                                                            + + + +                                                             ",
"                                                                                                                                ",
"                                                                                                                                ",
"                                                                                                                                ",
"                                                                                                                                ",
"                                                                                                                                ",
"                                                                                                                                ",
"                                                                                                                                ",
"                                                                                                                                "
};
