/* XPM */
static char *_645014172728[] = {
/* columns rows colors chars-per-pixel */
"64 64 103 2 ",
"   c #001425",
".  c #00192D",
"X  c #001B30",
"o  c #00233F",
"O  c #242633",
"+  c #2B2C3C",
"@  c #002441",
"#  c #002B4E",
"$  c #00335D",
"%  c #2D2F40",
"&  c #2E3041",
"*  c #313446",
"=  c #333649",
"-  c #36394C",
";  c #393C4E",
":  c #3C3F52",
">  c #003662",
",  c #003C6D",
"<  c #003F73",
"1  c #263F60",
"2  c #344056",
"3  c #3D4054",
"4  c #3C4259",
"5  c #004177",
"6  c #00437A",
"7  c #254165",
"8  c #23456C",
"9  c #3A4E68",
"0  c #41455B",
"q  c #464A63",
"w  c #494C66",
"e  c #4B4E69",
"r  c #4E526E",
"t  c #455A76",
"y  c #525573",
"u  c #545876",
"i  c #565A7A",
"p  c #585C7C",
"a  c #004985",
"s  c #004E8E",
"d  c #1D5287",
"f  c #005194",
"g  c #00559B",
"h  c #1A5792",
"j  c #175997",
"k  c #1F5E9B",
"l  c #2B5584",
"z  c #3B6388",
"x  c #005AA4",
"c  c #1463AB",
"v  c #0061B1",
"b  c #0066BA",
"n  c #0068BE",
"m  c #1366B0",
"M  c #1C69B0",
"N  c #2E77B6",
"B  c #466D90",
"V  c #507AA0",
"C  c #006CC6",
"Z  c #0F6EC1",
"A  c #006FC9",
"S  c #0E70C6",
"D  c #0070CC",
"F  c #1E76C0",
"G  c #1177CF",
"H  c #0074D2",
"J  c #0E7AD7",
"K  c #0076D8",
"L  c #0079DD",
"P  c #017CE1",
"I  c #007FE8",
"U  c #5486B0",
"Y  c #558AB5",
"T  c #0680E7",
"R  c #0A80E3",
"E  c #0182ED",
"W  c #1489E9",
"Q  c #0085F3",
"!  c #0388F7",
"~  c #008CFF",
"^  c #0790FF",
"/  c #0B92FF",
"(  c #1296FF",
")  c #1C9BFF",
"_  c #219DFF",
"`  c #26A0FE",
"'  c #2CA3FE",
"]  c #34A7FE",
"[  c #37A9FE",
"{  c #3CABFE",
"}  c #5593C1",
"|  c #5FAFE5",
" . c #41AEFE",
".. c #45B0FE",
"X. c #4BB3FE",
"o. c #52B7FE",
"O. c #53B8FE",
"+. c #5BBCFE",
"@. c #62B4EC",
"#. c #65BCF5",
"$. c #61BFFE",
"%. c #67C2FE",
"&. c None",
/* pixels */
"&.&.&.&.&.&.&.&.&.&.&.&.&.&.&.&.&.&.&.&.&.&.&.&.&.&.&.&.&.&.&.&.&.&.&.&.&.&.&.&.&.&.&.&.&.&.&.&.&.&.&.&.&.&.&.&.&.&.&.&.&.&.&.&.",
"&.&.&.&.&.&.&.&.&.&.&.&.&.&.&.&.&.&.&.&.&.&.&.&.&.&.&.&.&.&.&.&.&.&.&.&.&.&.&.&.&.&.&.&.&.&.&.&.&.&.&.&.&.&.&.&.&.&.&.&.&.&.&.&.",
"&.&.&.&.&.&.&.&.&.&.&.&.&.&.&.&.&.&.&.&.&.&.&.&.&.&.&.&.&.&.&.&.&.&.&.&.&.&.&.&.&.&.&.&.&.&.&.&.&.&.&.&.&.&.&.&.&.&.&.&.&.&.&.&.",
"&.&.&.&.&.&.&.&.&.&.&.&.&.&.&.&.&.&.&.&.&.&.&.&.&.&.&.&.&.&.&.&.&.&.&.&.&.&.&.&.&.&.&.&.&.&.&.&.&.&.&.&.&.&.&.&.&.&.&.&.&.&.&.&.",
"&.&.&.&.&.&.&.&.&.&.&.&.&.&.&.&.&.&.&.&.&.&.&.&.&.&.&.&.&.&.&.&.&.&.&.&.&.&.&.&.&.&.&.&.&.&.&.&.&.&.&.&.&.&.&.&.&.&.&.&.&.&.&.&.",
"&.&.&.&.&.&.&.&.&.&.&.&.&.&.&.&.&.3 3 3 3 : 0 3 : &.&.&.&.&.&.&.&.&.&.&.&.&.&.&.&.&.&.&.&.&.&.&.&.&.&.&.&.&.&.&.&.&.&.&.&.&.&.&.",
"&.&.&.&.&.&.&.&.&.&.&.&.&.&.&.&.3 3 : : 3 3 : 3 3 3 3 &.&.&.&.&.&.&.&.&.&.&.&.&.&.&.&.&.&.&.&.&.&.&.&.&.&.&.&.&.&.&.&.&.&.&.&.&.",
"&.&.&.&.&.&.&.&.&.&.&.&.&.&.&.; : ; * = = ; 0 : 3 3 3 3 3 &.&.&.&.&.&.&.&.&.&.&.&.&.&.&.&.&.&.&.&.&.&.&.&.&.&.&.&.&.&.&.&.&.&.&.",
"&.&.&.&.&.&.&.&.&.&.&.&.&.&.&.= * * % & & & * w q 0 3 3 3 3 : &.&.&.&.&.&.&.&.&.&.&.&.&.&.&.&.&.&.&.&.&.&.&.&.&.&.&.&.&.&.&.&.&.",
"&.&.&.&.&.&.&.&.&.&.&.&.&.&.&.O + * & & & & & & : y 0 : 3 3 3 : &.&.&.&.&.&.&.&.&.&.&.&.&.&.&.&.&.&.&.&.&.&.&.&.&.&.&.&.&.&.&.&.",
"&.&.&.&.&.&.&.&.&.&.&.&.&.&.&.&.* + & & & & & & & = y r 3 3 0 : 3 : &.&.&.&.&.&.&.&.&.&.&.&.&.&.&.&.&.&.&.&.&.&.&.&.&.&.&.&.&.&.",
"&.&.&.&.&.&.&.&.&.&.&.&.&.&.&.&.+ & & & & & & & & & * e y 0 : : 3 3 : &.&.&.&.&.&.&.&.&.&.&.&.&.&.&.&.&.&.&.&.&.&.&.&.&.&.&.&.&.",
"&.&.&.&.&.&.&.&.&.&.&.&.&.&.&.&.O & & & & & & & & & & & e i 0 : 3 3 3 : &.&.&.&.&.&.&.&.&.&.&.&.&.&.&.&.&.&.&.&.&.&.&.&.&.&.&.&.",
"&.&.&.&.&.&.&.&.&.&.&.&.&.&.&.&.&.& & & & & & & & & & & % w p q 3 3 3 3 : &.&.&.&.&.&.&.&.&.&.&.&.&.&.&.&.&.&.&.&.&.&.&.&.&.&.&.",
"&.&.&.&.&.&.&.&.&.&.&.&.&.&.&.&.&.& & & & & & & & & & & + * r p 0 3 3 3 3 ; &.&.&.&.&.&.&.&.&.&.&.&.&.&.&.&.&.&.&.&.&.&.&.&.&.&.",
"&.&.&.&.&.&.&.&.&.&.&.&.&.&.&.&.&.+ & & & & & & & & & & * + * y p 0 3 3 3 3 &.&.&.&.&.&.&.&.&.&.&.&.&.&.&.&.&.&.&.&.&.&.&.&.&.&.",
"&.&.&.&.&.&.&.&.&.&.&.&.&.&.&.&.&.O & & & & & & & & & & & & & - u y 3 3 3 3 3 &.&.&.&.&.&.&.&.&.&.&.&.&.&.&.&.&.&.&.&.&.&.&.&.&.",
"&.&.&.&.&.&.&.&.&.&.&.&.&.&.&.&.&.&.& & & & & & & & & & & & & & 0 p q 3 3 3 3 ; &.&.&.&.&.&.&.&.&.&.&.&.&.&.&.&.&.&.&.&.&.&.&.&.",
"&.&.&.&.&.&.&.&.&.&.&.&.&.&.&.&.&.&.+ & & & & & & & & & & & & & & r i 3 3 3 3 3 &.&.&.&.&.&.&.&.&.&.&.&.&.&.&.&.&.&.&.&.&.&.&.&.",
"&.&.&.&.&.&.&.&.&.&.&.&.&.&.&.&.&.&.+ & & & & & & & & & & & & & & = i r 3 3 3 3 : &.&.&.&.&.&.&.&.&.&.&.&.&.&.&.&.&.&.&.&.&.&.&.",
"&.&.&.&.&.&.&.&.&.&.&.&.&.&.&.&.&.&.O & & & & & & & & & & & & & & & q p 0 3 3 3 3 &.&.&.&.&.&.&.&.&.&.&.&.&.&.&.&.&.&.&.&.&.&.&.",
"&.&.&.&.&.&.&.&.&.&.&.&.&.&.&.&.&.&.&.& & & & & & & & & + & & & & & * u r 3 3 3 3 : &.&.&.&.&.&.&.&.&.&.&.&.&.&.&.&.&.&.&.&.&.&.",
"&.&.&.&.&.&.&.&.&.&.&.&.&.&.&.&.&.&.&.& & & & & & & & & * % & & % % + 0 p 0 3 3 3 3 &.&.&.&.&.&.&.&.&.&.&.&.&.&.&.&.&.&.&.&.&.&.",
"&.&.&.&.&.&.&.&.&.&.&.&.&.&.&.&.&.&.&.+ & & & & & & & & & & & & % * % * u r 3 3 3 3 ; &.&.&.&.&.&.&.&.&.&.&.&.&.&.&.&.&.&.&.&.&.",
"&.&.&.&.&.&.&.&.&.&.&.&.&.&.&.&.&.&.&.+ & & & & & & & & & & & & & & & & q p 0 : 3 3 3 &.&.&.&.&.&.&.&.&.&.&.&.&.&.&.&.&.&.&.&.&.",
"&.&.&.&.&.&.&.&.&.&.&.&.&.&.&.&.&.&.&.+ & & & & & & & & & & & & & & & & * p w : 3 3 3 - &.&.&.&.&.&.&.&.&.&.&.&.&.&.&.&.&.&.&.&.",
"&.&.&.&.&.&.&.&.&.&.~ ~ ~ ~ ~ ~ ~ &.&.O & & & & & & & & & & & & & & & & & r u : 3 3 : : &.&.&.&.&.&.&.&.&.&.&.&.&.&.&.&.&.&.&.&.",
"&.&.&.&.&.&.&.&.&.~ ~ ~ ~ ~ ~ ~ ~ ~ ~ j & & & & & & & & & & & & & & & & & 3 p 0 3 3 3 3 &.&.&.&.&.&.&.&.&.&.&.&.&.&.&.&.&.&.&.&.",
"&.&.&.&.&.&.&.&.&.C ~ ~ ~ ~ ~ ~ ~ ~ ~ Z & & & & & & & & & & & & & & & & & * i w 3 3 3 3 k &.&.&.&.&.&.&.&.&.&.&.&.&.&.&.&.&.&.&.",
"&.&.&.&.&.&.&.&.&.&.g ~ ~ ~ ~ ~ ~ ~ ~ S & & & & & & & & & & & & & & & & & & e y 3 3 3 3 l ~ ~ &.&.&.&.&.&.&.&.&.&.&.&.&.&.&.&.&.",
"&.&.&.&.&.&.&.&.&.&.&., E ~ ~ ~ ~ ~ ~ Z & & & & & & & & & & & & & & & & & & 4 p 0 3 3 3 4 ! ~ ~ ~ ~ &.&.&.&.&.&.&.&.&.&.&.&.&.&.",
"&.&.&.&.&.&.&.&.&.&.&.&.&.Q ~ ~ ~ ~ ~ Z & & & & & & & & & & & & & & & & & % * p 0 3 3 3 3 J ~ ~ ~ ~ ~ ~ &.&.&.&.&.&.&.&.&.&.&.&.",
"&.&.&.&.&.&.&.&.&.&.&.&.&.5 ~ ~ ~ ~ ~ c & & & & & & & & & & & & & & & & & & & y q : 3 3 3 M ~ ~ ~ ~ ~ ~ ~ ~ ~ &.&.&.&.&.&.&.&.&.",
"&.&.&.&.&.&.&.&.&.&.&.&.&.A ~ ~ ~ ~ ~ d & & & & & & & & & & & & & & & & & & + w r 3 3 3 3 l ~ ~ ~ ~ ~ ~ ~ ~ ~ ~ ~ &.&.&.&.&.&.&.",
"&.&.&.&.&.&.&.&.&.&.&.~ ~ ~ ~ ~ ~ ~ ~ 7 & & & & & & & & & & & & & & & & & & & : y 3 3 3 3 4 ~ ~ ~ ~ ~ ~ ~ ~ ~ ~ ~ ~ ~ &.&.&.&.&.",
"&.&.&.&.&.&.&.~ ~ ~ ~ ~ ~ ~ ~ ~ ~ ~ Q * & & & & & & & & & & & & & & & & & % % * y 3 3 3 3 3 R ~ ~ ~ ~ ~ ~ ~ ~ ~ ~ ~ ~ E &.&.&.&.",
"&.&.&.&.&.~ ~ ~ ~ ~ ~ ~ ~ ~ ~ ~ ~ ~ E h & & & & & & & & & & & & & & & & & & & & r 3 3 3 3 3 G ~ ~ ~ ~ ~ ~ ~ ~ ~ ~ ~ ~ &.&.&.&.&.",
"&.&.&.&.~ ~ ~ ~ ~ ~ ~ ~ ~ ~ ~ ~ ~ ~ ~ ~ ! Z 8 & & & & & & & & & & & & & & & & & w 3 3 3 3 3 N ~ ~ ~ ~ ~ ~ ~ ~ ~ C < o &.&.&.&.&.",
"&.&.&.~ ~ ~ ~ ~ ~ ~ / ` / ~ ~ ~ ' o.X. .) ~ ~ T c 7 & + & & & & & & & & & & & & 0 3 3 3 3 3 V ` ~ ~ ~ ~ ~ ~ ~ ~ &.&.&.&.&.&.&.&.",
"&.&.&.~ ~ ~ ~ ~ ~ ~ ~ { %.../ ~ ] %.%.%.%.%.X.` ^ ~ R c 8 & & & & & & & & & & & ; 3 3 3 3 3 Y +.~ ~ ~ ~ ~ ~ ~ ~ ~ &.&.&.&.&.&.&.",
"&.&.&.~ ~ ~ ~ ~ ~ ~ ~ ~ ( +.%.X.o.%.%.%.%.%.%.%.%.o.X.[ _ W F z : % % & & & & & = 3 3 3 3 t #.%.~ ~ ~ ~ ~ ~ ~ ~ ~ ~ ! &.&.&.&.&.",
"&.&.&.~ ~ ~ ~ ~ ~ ~ ~ ~ ~ ^ ` +.%.%.%.%.] ..%.%.%.%.%.%.%.%.%.%.%.| } B 9 = & & - 3 3 q U #.%.` ~ ~ ~ ~ ~ ~ ~ ~ ~ ~ ~ ~ &.&.&.&.",
"&.&.&.C ~ ~ ~ ~ ~ ~ ~ ~ ~ ~ ~ / ' %.%.[ ~ ~ / ] $.%.%.%.%.%.%.%.%.%.%.%.%.%.@.@.@.@.#.%.%.{ ( ~ ~ ~ ~ ~ ~ ~ ~ ~ ~ ~ ~ ~ ~ &.&.&.",
"&.&.&.&.f ~ ~ ~ ~ ~ ~ ~ ~ ~ ~ ~ ~ ~ ( ~ ~ ~ ~ ~ / ` %.%.%.%.%.] ~ ~ ~ ^ / / ) ) _ ) / ^ ~ ~ ~ ~ ~ ~ ~ ~ ~ ~ ~ ~ ~ ~ ~ ~ ~ ~ &.&.",
"&.&.&.&.&.# A ~ ~ ~ ~ ~ ~ ~ ~ ~ ~ ~ ~ ~ ~ ~ ~ ~ ~ ~ ^ _ ..%.%.{ ~ ~ ~ ~ ~ ~ ~ ~ ~ ~ ~ ~ ~ ~ ~ ~ ~ ~ ~ ~ ~ ~ ~ ~ ~ ~ ~ ~ ~ ~ &.&.",
"&.&.&.&.&.&.&.# v ~ ~ ~ ~ ~ ~ ~ ~ ~ ~ ~ ~ ~ ~ ~ ~ ~ ~ ~ ~ ~ ~ ~ ~ ~ ~ ~ ~ ~ ~ ~ ~ ~ ~ ~ ~ ~ ~ ~ ~ ~ ~ ~ ~ ~ ~ ~ ~ ~ ~ ~ ~ ~ &.&.",
"&.&.&.&.&.&.&.&.&.&.a P ~ ~ ~ ~ ~ ~ ~ ~ ~ ~ ~ ~ ~ ~ ~ ~ ~ ~ ~ ~ ~ ~ ~ ~ ~ ~ ~ ~ ~ ~ ~ ~ ~ ~ ~ ~ ~ ~ ~ ~ ~ ~ ~ ~ ~ ~ ~ ~ ~ ~ &.&.",
"&.&.&.&.&.&.&.&.&.&.&.&.  6 n ~ ~ ~ ~ ~ ~ ~ ~ ~ ~ ~ ~ ~ ~ ~ ~ ~ ~ ~ ~ ~ ~ ~ ~ ~ ~ ~ ~ ^ ~ ~ ~ ~ ~ ~ ~ ~ ~ ~ ~ ~ ~ ~ ~ ~ ~ A &.&.",
"&.&.&.&.&.&.&.&.&.&.&.&.&.&.&.$ D ~ ~ ~ ~ ~ ~ ~ ~ ~ ~ ~ ~ ~ ~ ~ ~ ~ ~ ~ ~ ~ ~ ~ ~ ~ ~ ~ ~ A   &.&.&.&.X $ s x H E ~ ~ E a &.&.&.",
"&.&.&.&.&.&.&.&.&.&.&.&.&.&.&.&.&.L ~ ~ ~ ~ ~ ~ ~ ~ ~ ~ ~ ~ ~ ~ ~ ~ ~ ~ ~ ~ ~ ~ ~ ~ ~ ~ ~ x &.&.&.&.&.&.&.&.&.&.&.&.&.&.&.&.&.&.",
"&.&.&.&.&.&.&.&.&.&.&.&.&.&.&.&.&.H ~ ~ ~ ~ ~ ~ ~ ~ ~ ~ ~ ~ ~ ~ ~ ~ ~ ~ ~ ~ ~ ~ ~ ~ ~ ~ ~ Q &.&.&.&.&.&.&.&.&.&.&.&.&.&.&.&.&.&.",
"&.&.&.&.&.&.&.&.&.&.&.&.&.&.&.&.&.~ ~ ~ ~ ~ ~ ~ ~ ~ ~ ~ ~ ~ ~ ~ ~ ~ ~ ~ ~ ~ ~ ~ ~ ~ ~ ~ ~ ~ &.&.&.&.&.&.&.&.&.&.&.&.&.&.&.&.&.&.",
"&.&.&.&.&.&.&.&.&.&.&.&.&.&.&.&.~ ~ ~ ~ ~ ~ ~ ~ ~ ~ ~ ~ ~ ~ ~ ~ ~ ~ ~ ~ ~ ~ ~ ~ ~ ~ ~ ~ ~ ~ P &.&.&.&.&.&.&.&.&.&.&.&.&.&.&.&.&.",
"&.&.&.&.&.&.&.&.&.&.&.&.&.&.&.~ ~ ~ ~ ~ ~ ~ ~ ~ ~ ~ ~ ~ H @ &.&.&.. , g C ! ~ ~ ~ ~ ~ ~ ~ ~ &.&.&.&.&.&.&.&.&.&.&.&.&.&.&.&.&.&.",
"&.&.&.&.&.&.&.&.&.&.&.&.&.&.&.~ ~ ~ ~ ~ ~ ~ ~ ~ ~ ~ ~ ~ 5 &.&.&.&.&.&.&.&.&.# 5 b P ~ ~ K > &.&.&.&.&.&.&.&.&.&.&.&.&.&.&.&.&.&.",
"&.&.&.&.&.&.&.&.&.&.&.&.&.&.&.P ~ ~ ~ ~ ~ ~ ~ ~ ~ ~ ~ ~ D &.&.&.&.&.&.&.&.&.&.&.&.&.&.&.&.&.&.&.&.&.&.&.&.&.&.&.&.&.&.&.&.&.&.&.",
"&.&.&.&.&.&.&.&.&.&.&.&.&.&.&.&.E ~ ~ ~ ~ ~ ~ ~ ~ ~ ~ ~ E &.&.&.&.&.&.&.&.&.&.&.&.&.&.&.&.&.&.&.&.&.&.&.&.&.&.&.&.&.&.&.&.&.&.&.",
"&.&.&.&.&.&.&.&.&.&.&.&.&.&.&.&.&.P ~ ~ ~ ~ ~ ~ ~ ~ ~ ~ Q &.&.&.&.&.&.&.&.&.&.&.&.&.&.&.&.&.&.&.&.&.&.&.&.&.&.&.&.&.&.&.&.&.&.&.",
"&.&.&.&.&.&.&.&.&.&.&.&.&.&.&.&.&.&., A ~ ~ ~ ~ ~ ~ ~ ~ b &.&.&.&.&.&.&.&.&.&.&.&.&.&.&.&.&.&.&.&.&.&.&.&.&.&.&.&.&.&.&.&.&.&.&.",
"&.&.&.&.&.&.&.&.&.&.&.&.&.&.&.&.&.&.&.&.. 6 s s s s s a &.&.&.&.&.&.&.&.&.&.&.&.&.&.&.&.&.&.&.&.&.&.&.&.&.&.&.&.&.&.&.&.&.&.&.&.",
"&.&.&.&.&.&.&.&.&.&.&.&.&.&.&.&.&.&.&.&.&.&.&.&.&.&.&.&.&.&.&.&.&.&.&.&.&.&.&.&.&.&.&.&.&.&.&.&.&.&.&.&.&.&.&.&.&.&.&.&.&.&.&.&.",
"&.&.&.&.&.&.&.&.&.&.&.&.&.&.&.&.&.&.&.&.&.&.&.&.&.&.&.&.&.&.&.&.&.&.&.&.&.&.&.&.&.&.&.&.&.&.&.&.&.&.&.&.&.&.&.&.&.&.&.&.&.&.&.&.",
"&.&.&.&.&.&.&.&.&.&.&.&.&.&.&.&.&.&.&.&.&.&.&.&.&.&.&.&.&.&.&.&.&.&.&.&.&.&.&.&.&.&.&.&.&.&.&.&.&.&.&.&.&.&.&.&.&.&.&.&.&.&.&.&.",
"&.&.&.&.&.&.&.&.&.&.&.&.&.&.&.&.&.&.&.&.&.&.&.&.&.&.&.&.&.&.&.&.&.&.&.&.&.&.&.&.&.&.&.&.&.&.&.&.&.&.&.&.&.&.&.&.&.&.&.&.&.&.&.&."
};
