/* XPM */
static char *_3b3fcfffe704b0682d723bc3fc4ef20CzW30Ntuai4uRSxs[] = {
/* columns rows colors chars-per-pixel */
"64 64 137 2 ",
"   c None",
".  c black",
"X  c #1C2E5F",
"o  c #23335D",
"O  c #29375C",
"+  c #303C5B",
"@  c #001C63",
"#  c #052166",
"$  c #0A2365",
"%  c #072268",
"&  c #0B2569",
"*  c #0E286A",
"=  c #112760",
"-  c #142960",
";  c #132D6C",
":  c #182F6B",
">  c #1B316D",
",  c #142D71",
"<  c #163271",
"1  c #1C3573",
"2  c #1D3678",
"3  c #1E387A",
"4  c #203773",
"5  c #243A74",
"6  c #2A3E74",
"7  c #243D7D",
"8  c #3E4558",
"9  c #2B447C",
"0  c #304373",
"q  c #3D4C77",
"w  c #31457B",
"e  c #35497E",
"r  c #454957",
"t  c #414758",
"y  c #4E5055",
"u  c #535355",
"i  c #404F79",
"p  c #425279",
"a  c #4A577C",
"s  c #525E7F",
"d  c #646464",
"f  c #6A6A6A",
"g  c #727272",
"h  c #274080",
"j  c #2C4483",
"k  c #2F4887",
"l  c #314A86",
"z  c #3B4E81",
"x  c #364D8B",
"c  c #335087",
"v  c #3A518E",
"b  c #3B588C",
"n  c #3E5491",
"m  c #445685",
"M  c #475886",
"N  c #495A87",
"B  c #4E5E8A",
"V  c #405692",
"C  c #435995",
"Z  c #485E99",
"A  c #5A6481",
"S  c #54638C",
"D  c #58678E",
"F  c #446292",
"G  c #4C639D",
"H  c #576790",
"J  c #586790",
"K  c #5E6C92",
"L  c #6B7388",
"P  c #767C8C",
"I  c #7A7F8D",
"U  c #667498",
"Y  c #6D799A",
"T  c #727E9D",
"R  c #5267A1",
"E  c #556BA3",
"W  c #5A6EA6",
"Q  c #5977A1",
"!  c #5E73AB",
"~  c #6176AC",
"^  c #6478AF",
"/  c #677BB1",
"(  c #6A7EB4",
")  c #74809F",
"_  c #7580A0",
"`  c #7B86A1",
"'  c #7E89A4",
"]  c #6E82B7",
"[  c #6F83B8",
"{  c #858585",
"}  c #80848F",
"|  c #8E8E8E",
" . c #838691",
".. c #858891",
"X. c #8C8E94",
"o. c #8F9195",
"O. c #919293",
"+. c #999999",
"@. c #828BA5",
"#. c #858EA8",
"$. c #8790A9",
"%. c #8A93AB",
"&. c #969CAD",
"*. c #999FAF",
"=. c #939AB0",
"-. c #9FA4B3",
";. c #99A0B3",
":. c gray68",
">. c #A5A9B6",
",. c #A7ABB6",
"<. c #A8ACB7",
"1. c #ADB1BA",
"2. c #AEB3BF",
"3. c #ADB2BE",
"4. c #B0B2BA",
"5. c #B2B5BD",
"6. c #B5B7BD",
"7. c #B6B8BF",
"8. c #B1B5C0",
"9. c #B2B6C1",
"0. c #B5B8C2",
"q. c #B8BAC0",
"w. c #BABCC1",
"e. c #BBBDC2",
"r. c #BCBEC3",
"t. c #BBBEC6",
"y. c #BABDC5",
"u. c #BDBFC4",
"i. c #BEC0C5",
"p. c #BFC1C6",
"a. c #C0C2C7",
"s. c #C1C3C8",
"d. c #C1C2C8",
"f. c #C2C4C9",
"g. c #C3C5CA",
"h. c #C4C6CB",
"j. c #C5C7CC",
/* pixels */
"                                                                                                                                ",
"                                                                                                                                ",
"                                                                                                                                ",
"                                                                                                                                ",
"                                                                                                                                ",
"                                                                                                                                ",
"                                                                                                                                ",
"                                                                                                                                ",
"                                                                                                                                ",
"                                                                                                                                ",
"                                                                                                                                ",
"                                                                                                                                ",
"                                                                                                                                ",
"                                                                                                                                ",
"                                                                                                                                ",
"                                                                                                                                ",
"                                                                                                                                ",
"                                                      @ @ @ @ @ @ @ @ @ @                                                       ",
"                                                @ @ @ @ @ @ @ @ @ @ @ @ @ @ @                                                   ",
"                                              @ @ @ < . . . . . . . . . . ; @ @ @                                               ",
"                                          @ @ @ c . . . . . . . . . . . . . . j @ @ @                                           ",
"                                        @ @ * . . . . . . . . . . . . . . . . . . & @ @                                         ",
"                                      @ @ 7 . . . . . . . . . . . . . . . . . . . . < @ @                                       ",
"                                    @ @ 1 . . . . . . . . . . . . . . . . . . . . . . < @ @                                     ",
"                                    @ # . . . . . . . . . . . . . . . . . . . . . . . . @ @                                     ",
"                                  @ @ . . . . . . . . . . . . . . . . . . . . . . . . . . @ @                                   ",
"                                  @ & . . . . . . . . . . . . . . . . . . . . . . . . . . & @                                   ",
"                            @ @ @ @ Q . . . . . . . . . . . . . . . . . . . . . . . . . . F @ @ @ @                             ",
"                      @ @ @ @ @ # @ @ b . . . . . . . . . . . . . . . . . . . . . . . . F @ @ $ @ @ @ @ @                       ",
"                @ @ @ @ @ 5 K %.t.@.& @ # c . . . . . . . . . . . . . . . . . . . . F & @ % #.u.%.H 4 @ @ @ @ @                 ",
"            @ @ @ @ m %.0.h.j.j.j.j.0.K # @ @ # j . . . . . . . . . . . . . . . ; @ @ @ B 9.j.j.h.h.j.9.#.z @ @ @ @             ",
"        @ @ @ ; _ 9.j.j._ 1 $ 1 T j.j.j.t.' z @ @ @ @ @ @ @ @ @ # # @ @ @ @ @ @ @ 1 Y 3.j.j.T 1 $ 1 ' e.i.h.9.Y * @ @ @         ",
"        @ @ ; 6.a.h.j.j.& @ @ @ & j.j.j.j.j.j.u.*._ H z 5 ; $ @ @ @ @ ; 6 m U %.3.j.a.i.s.j.* @ @ @ = y.e.i.g.i.5.: @ @ @       ",
"      @ @ @ ; 1.e.e.u.h.%.5 @ 6 #.j.j.j.j.j.j.j.j.j.j.j.j.j.j.j.g.g.j.j.j.j.j.j.j.j.i.e.i.j.$.4 @ 6 %.y.e.e.e.e.<.* @ @ @       ",
"      @ x < @ % N &.e.e.e.u.s.j.j.j.j.j.j.j.j.j.j.j.j.j.j.T 4 % 1 @.j.j.j.j.j.j.j.j.j.j.i.g.a.u.e.e.e.e.e.e.*.m % @ 7 7 @ @     ",
"      @ k / x @ @ @ 5 D &.q.e.q.u.a.s.s.j.j.j.j.j.j.j.j.j.; @ @ @ ; j.j.j.j.j.j.j.j.j.j.g.g.e.e.e.e.7.&.S 4 @ @ @ k / 7 @ @     ",
"      @ @ Z [ ! v * @ @ @ & w D ' ,.q.e.e.u.u.a.s.s.s.j.h.$.6 @ 6 =.j.h.h.s.p.p.i.i.e.e.y.q.>.' S w & @ @ @ * v ^ [ C @ @       ",
"        @ @ 7 / ] ] E x , @ @ @ @ @ & 4 e m K T @.*.-.4.6.q.e.e.t.q.q.0.1.>.&.@.Y K M e 4 $ @ @ @ @ @ , v W ] [ ^ 7 @ @         ",
"          @ @ # j W [ [ ] / R n h * @ @ @ @ @ @ @ @ @ @ @ @ @ @ @ @ @ @ @ @ @ @ @ @ @ @ @ @ ; h n E / [ ] [ W h @ @ @           ",
"            @ @ @ @ , x W ] ] [ [ [ ( ! R Z n k h 2 , * & & @ @ @ @ & & * , 2 h k n Z R ~ ( [ [ ( [ ( W k , @ @ @ @             ",
"              @ @ & @ @ @ % 2 l Z ~ [ [ [ [ [ [ [ [ [ [ [ [ [ [ [ [ [ [ [ [ [ [ [ ] [ [ [ [ ! Z j 2 $ @ @ @ $ @ @               ",
"              @ $ O.P p @ @ @ @ @ @ # , 3 h x Z G W ! / ] ] [ ] [ [ ] ] / ! E G C x h 3 , # @ @ @ @ @ @ a I +.$ @               ",
"              @ q +.+.i @ @     @ @ @ @ @ @ @ @ @ @ @ @ @ @ @ @ @ @ @ @ @ @ @ @ @ @ @ @ @ @ @ @     @ @ s +.+.0 @               ",
"            @ @ L +...# @                     @ @ @ @ @ @ @ @ @ @ @ @ @ @ @ @ @ @                     @ @ X.+.s @ @             ",
"            @ @ o.+.0 @ @                                 @ $ +.+.$ @                                 @ @ p +.X.@ @             ",
"            @ 6 +. .@ @                                   @ @ O.O.@ @                                   @ @ } +.4 @             ",
"          @ @ @ : : @                                     @ @  .I @ @                                   @ @ : : @ @ @           ",
"        @ @ @ @ @ @ @                                     @ @ # $ @ @                                     @ @ @ @ @ @ @         ",
"        @ = t u t X @                                     @ @ @ @ @ @                                   @ @ = r u r $ @ @       ",
"      @ @ r f +.f t @ @                                 @ @ O u y O @ @                                 @ @ r g +.f t @ @       ",
"      @ @ u | :.| u @ @                                 @ X u O.| u - @                                 @ @ u +.:.| u @ @       ",
"      @ @ r d O.d r @ @                               @ @ + d :.:.d o @                                 @ @ r f O.d 8 @ @       ",
"        @ = 8 u 8 $ @                                   @ X u { { u X @                                 @ @ $ t u 8 $ @ @       ",
"        @ @ @ @ @ @ @                                   @ @ X u y o @ @                                   @ @ @ @ @ @ @         ",
"            @ @ @                                         @ @ @ @ @ @                                         @ @ @             ",
"                                                            @ @ @ @                                                             ",
"                                                                                                                                ",
"                                                                                                                                ",
"                                                                                                                                ",
"                                                                                                                                ",
"                                                                                                                                ",
"                                                                                                                                ",
"                                                                                                                                ",
"                                                                                                                                "
};
