/* XPM */
static char *_645014148110[] = {
/* columns rows colors chars-per-pixel */
"64 64 189 2 ",
"   c #2D2B30",
".  c #2D2C31",
"X  c #2D2E33",
"o  c #2E353C",
"O  c #2E424D",
"+  c #305263",
"@  c #305768",
"#  c #305D70",
"$  c #316176",
"%  c #316E87",
"&  c #327089",
"*  c #327995",
"=  c #327B97",
"-  c #006DA6",
";  c #016DA6",
":  c #016EA7",
">  c #016FA8",
",  c #026FA8",
"<  c #0270A8",
"1  c #0371A9",
"2  c #0372AA",
"3  c #0771A9",
"4  c #0472AA",
"5  c #0472AB",
"6  c #0473AB",
"7  c #0573AB",
"8  c #0574AC",
"9  c #0674AC",
"0  c #0675AC",
"q  c #0675AD",
"w  c #0776AD",
"e  c #0776AE",
"r  c #0878AF",
"t  c #0978B0",
"y  c #0979B0",
"u  c #0A7AB1",
"i  c #0A7BB1",
"p  c #0B7BB2",
"a  c #0B7CB3",
"s  c #0C7CB3",
"d  c #0D7EB4",
"f  c #0D7FB5",
"g  c #0E7FB5",
"h  c #1F7FB1",
"j  c #0E80B6",
"k  c #0F80B6",
"l  c #0F81B7",
"z  c #0F82B7",
"x  c #1081B7",
"c  c #1183B8",
"v  c #1184B9",
"b  c #1284B9",
"n  c #1285BA",
"m  c #1386BB",
"M  c #1387BB",
"N  c #1488BC",
"B  c #168ABE",
"V  c #178BBF",
"C  c #3387A7",
"Z  c #338CAD",
"A  c #3491B4",
"S  c #178CC0",
"D  c #188DC1",
"F  c #198EC1",
"G  c #1B90C3",
"H  c #1B91C4",
"J  c #1D93C5",
"K  c #1D93C6",
"L  c #1D94C6",
"P  c #1E94C6",
"I  c #1E94C7",
"U  c #1E95C7",
"Y  c #1F95C7",
"T  c #2198CA",
"R  c #2199CA",
"E  c #2199CB",
"W  c #2299CB",
"Q  c #239ACC",
"!  c #239BCC",
"~  c #239CCD",
"^  c #249CCD",
"/  c #249DCE",
"(  c #259ECE",
")  c #269FCF",
"_  c #349DC3",
"`  c #269FD0",
"'  c #27A0D1",
"]  c #28A1D1",
"[  c #28A2D2",
"{  c #29A3D3",
"}  c #2AA4D4",
"|  c #2AA5D4",
" . c #2CA7D6",
".. c #2DA8D7",
"X. c #2DA9D8",
"o. c #2EA9D8",
"O. c #2EAAD9",
"+. c #2FAAD9",
"@. c #2FABDA",
"#. c #35ACD7",
"$. c #30ACDA",
"%. c #30ACDB",
"&. c #30ADDB",
"*. c #31ADDB",
"=. c #36AFDB",
"-. c #31ADDC",
";. c #31AEDC",
":. c #32AEDC",
">. c #32AFDD",
",. c #33B0DD",
"<. c #33B0DE",
"1. c #34B1DF",
"2. c #36B1DE",
"3. c #34B2DF",
"4. c #35B2DF",
"5. c #36B3DF",
"6. c #35B2E0",
"7. c #35B3E0",
"8. c #36B3E0",
"9. c #36B3E1",
"0. c #36B4E0",
"q. c #36B4E1",
"w. c #37B4E1",
"e. c #38B5E1",
"r. c #3AB5E2",
"t. c #3BB6E2",
"y. c #3CB6E2",
"u. c #3DB6E2",
"i. c #3EB7E2",
"p. c #4A98C1",
"a. c #40B7E2",
"s. c #41B8E2",
"d. c #43B8E3",
"f. c #45B9E3",
"g. c #46B9E3",
"h. c #4DBCE4",
"j. c #51BDE4",
"k. c #55BFE5",
"l. c #58BFE5",
"z. c #59C0E5",
"x. c #60C2E6",
"c. c #67C4E7",
"v. c #6AC5E7",
"b. c #75C9E9",
"n. c #77CAE9",
"m. c #7ACBE9",
"M. c #7DCCEA",
"N. c #82CEEA",
"B. c #8BD0EB",
"V. c #8ED2EC",
"C. c #91D2EC",
"Z. c #92D3EC",
"A. c #95D4EC",
"S. c #9ED7EE",
"D. c #A6CDE2",
"F. c #A8CEE2",
"G. c #AACFE3",
"H. c #A2D8EE",
"J. c #A3D9EE",
"K. c #A7DAEF",
"L. c #AADBEF",
"P. c #B4D5E6",
"I. c #B8D7E8",
"U. c #AEDCF0",
"Y. c #B1DDF0",
"T. c #B3DEF0",
"R. c #B5DFF0",
"E. c #B7DFF1",
"W. c #BBE0F1",
"Q. c #BBE1F1",
"!. c #C0DCEB",
"~. c #C8E0ED",
"^. c #C0E2F2",
"/. c #C2E3F2",
"(. c #C4E4F2",
"). c #C8E5F3",
"_. c #D2E6F1",
"`. c #D1E8F4",
"'. c #D4E9F4",
"]. c #D5E9F4",
"[. c #D8EAF4",
"{. c #D8EAF5",
"}. c #D9EBF5",
"|. c #DAEAF4",
" X c #DAEBF5",
".X c #DBECF5",
"XX c #DCECF5",
"oX c #DDECF5",
"OX c None",
/* pixels */
"OXOXOXOXOXOXOXOXOXOXOXOXOXOXOXOXOXOXOXOXOXOXOXOXOXOXOXOXOXOXOXOXOXOXOXOXOXOXOXOXOXOXOXOXOXOXOXOXOXOXOXOXOXOXOXOXOXOXOXOXOXOXOXOX",
"OXOXOXOXOXOXOXOXOXOXOXOXOXOXOXOXOXOXOXOXOXOXOXOXOXOXOXOXOXOXOXOXOXOXOXOXOXOXOXOXOXOXOXOXOXOXOXOXOXOXOXOXOXOXOXOXOXOXOXOXOXOXOXOX",
"OXOXOXOXOXOXOXOXOXOXOXOXOXOXOXOXOXOXOXOXOXOXOXOXOXOXq.q.q.q.q.q.OXOXOXOXOXOXOXOXOXOXOXOXOXOXOXOXOXOXOXOXOXOXOXOXOXOXOXOXOXOXOXOX",
"OXOXOXOXOXOXOXOXOXOXOXOXOXOXOXOXOXOXOXOXOXq.q.q.q.q.q.q.q.q.q.q.q.q.q.q.q.OXOXOXOXOXOXOXOXOXOXOXOXOXOXOXOXOXOXOXOXOXOXOXOXOXOXOX",
"OXOXOXOXOXOXOXOXOXOXOXOXOXOXOXOXOXOXq.q.q.q.q.q.q.q.q.q.q.q.q.q.q.q.q.q.q.q.q.q.OXOXOXOXOXOXOXOXOXOXOXOXOXOXOXOXOXOXOXOXOXOXOXOX",
"OXOXOXOXOXOXOXOXOXOXOXOXOXOXOXOXq.q.q.q.q.q.q.q.q.q.q.q.q.q.q.q.q.q.q.q.q.q.q.q.q.q.OXOXOXOXOXOXOXOXOXOXOXOXOXOXOXOXOXOXOXOXOXOX",
"OXOXOXOXOXOXOXOXOXOXOXOXOXOXq.q.q.q.q.q.q.q.q.q.q.q.q.q.q.q.q.q.q.q.q.q.q.q.q.q.q.q.q.q.OXOXOXOXOXOXOXOXOXOXOXOXOXOXOXOXOXOXOXOX",
"OXOXOXOXOXOXOXOXOXOXOXOXOXq.q.q.q.q.q.q.q.q.q.q.q.q.q.q.q.q.q.q.q.q.q.q.q.q.q.q.q.q.q.q.q.q.q.q.q.q.q.q.q.q.OXOXOXOXOXOXOXOXOXOX",
"OXOXOXOXOXOXOXOXOXOXOXOXq.q.q.q.q.q.q.q.q.q.q.q.q.q.q.q.q.q.q.q.q.q.q.q.q.q.q.q.q.q.q.q.q.q.q.q.q.q.q.q.q.q.q.q.OXOXOXOXOXOXOXOX",
"OXOXOXOXOXOXOXOXOXOXOXq.q.q.q.q.q.q.q.q.q.q.q.q.q.q.q.q.q.q.q.q.q.q.q.q.q.q.4.$.$.:.<.4.q.6.q.q.q.q.q.q.q.q.q.q.q.q.OXOXOXOXOXOX",
"OXOXOXOXOXOXOXOXOXOXq.q.q.q.q.q.q.q.q.q.q.q.q.q.q.q.q.q.q.q.q.q.q.q.q.@.R v r e 0 e e p v R ..4.q.q.q.q.q.q.q.q.q.q.q.OXOXOXOXOX",
"OXOXOXOXOXOXOXOXOXq.q.q.q.q.q.q.q.q.q.q.q.q.q.q.q.q.q.q.q.q.q.q.4...v 5 : > e s v v j p 0 : 1 j ) <.q.q.q.q.q.q.q.q.q.OXOXOXOXOX",
"OXOXOXOXOXOXOXOXq.q.q.q.q.q.q.q.q.q.q.q.q.q.q.q.q.q.q.q.q.q.q.<.H 5 : 0 V | $.q.q.q.q.4.$.) j 5 : s | 6.q.q.q.q.q.q.q.OXOXOXOXOX",
"OXOXOXOXOXOXOXOXq.q.q.q.q.q.q.q.q.q.q.q.q.q.q.q.q.q.q.q.q.q.@.x : e L $.q.q.q.q.q.q.q.q.q.4.4.| p : e } q.q.q.q.q.OXOXOXOXOXOXOX",
"OXOXOXOXOXOXOXq.q.q.q.q.q.q.q.q.4.Z & A 5.q.q.q.q.q.q.q.q.6.V e V $.q.q.q.q.q.q.q.q.q.q.q.q.<.R e > V <.q.q.q.OXOXOXOXOXOXOXOXOX",
"OXOXOXOXOXOXOXq.q.q.q.q.q.q.q.q.=     o C q.q.q.q.q.q.q.q.q.@.$.q.q.q.q.q.q.q.q.q.q.q.q.4.) s > p ) 4.q.q.q.OXOXOXOXOXOXOXOXOXOX",
"OXOXOXOXOXOXq.q.q.q.q.q.q.q.q.6.$       @ e.q.q.q.q.q.q.q.q.q.q.q.q.q.q.q.q.q.q.q.q.4. .c 1 e L $.q.q.q.q.q.OXOXOXOXOXOXOXOXOXOX",
"OXOXOXOXOXOXq.q.q.q.q.q.q.q.q.q.*       # 4.q.q.q.q.q.q.q.q.q.q.q.q.q.q.q.q.q.6.4.@.F 5 , v ..q.q.q.q.q.q.q.OXOXOXOXOXOXOXOXOXOX",
"OXOXOXOXOXOXq.q.q.q.q.q.q.q.q.q.=.% O + _ q.q.q.q.q.q.q.q.q.q.q.q.q.q.4.:.$.@.) M 0 1 j [ 6.q.q.q.q.q.q.q.q.OXOXOXOXOXOXOXOXOXOX",
"OXOXOXOXOXOXq.q.q.q.q.q.q.q.q.q.4.5.2.4.q.q.q.q.q.q.q.q.q.q.q.q.q.q.q.~ e 5 5 : e v [ 4.q.q.q.q.q.q.q.q.q.q.OXOXOXOXOXOXOXOXOXOX",
"OXOXOXOXOXOXq.q.q.q.q.q.q.q.q.q.q.q.q.q.q.q.q.q.q.q.q.q.q.q.e.6.q.q.q.:.Q K L [ @.4.q.q.q.q.q.q.q.q.q.q.q.q.OXOXOXOXOXOXOXOXOXOX",
"OXOXOXOXOXOXOXq.q.q.q.q.q.q.q.q.q.4.q.q.q.q.q.q.q.q.q.q.q.q.q.4.e.i.y.q.q.q.q.q.q.q.q.q.q.q.q.q.q.q.q.q.q.q.OXOXOXOXOXOXOXOXOXOX",
"OXOXOXOXOXOXOXq.q.q.q.q.q.q.q.q.4.H F 6.q.q.q.q.q.q.q.q.y.j.M.L./.(./.Q.C.x.s.q.q.q.q.q.q.q.q.q.q.q.q.q.q.q.OXOXOXOXOXOXOXOXOXOX",
"OXOXOXOXOXOXOXOXq.q.q.q.q.q.q.6.F : p 4.q.q.q.q.q.q.y.c.Y.'.oXoXXXXXXX{.XX.X/.b.y.q.q.q.q.q.q.q.q.q.q.q.q.q.OXOXOXOXOXOXOXOXOXOX",
"OXOXOXOXOXOXOXOXq.q.q.q.q.q.4.F : 5 ' q.q.q.q.q.e.z.U.{.oXoXoXoXXXXXoXoXoXoXoXoXH.f.6.q.q.q.q.q.q.q.q.q.q.q.OXOXOXOXOXOXOXOXOXOX",
"OXOXOXOXOXOXOXq.q.q.q.q.q.6.L 1 e ) q.q.q.q.q.i.N.`.XXXXoXoXoXoXXXXXoXoXoXoXoXoXXXJ.y.q.q.q.q.q.q.q.q.q.q.q.OXOXOXOXOXOXOXOXOXOX",
"OXOXOXOXOXOXOXq.q.q.q.q.6.Q 5 e ~ q.q.q.q.q.f.Z.|.oXXXXXoXoXoXoXoXoXoXoXoXoXoXoXXX].b.q.q.q.q.q.q.q.q.q.q.q.OXOXOXOXOXOXOXOXOXOX",
"OXOXOXOXOXOXq.q.q.q.q.4.R 5 p ' q.q.q.q.q.f.S.XXoX|.I.G.G.G.P.!._.oXoXoXoXoXoXoXXXXXE.s.q.q.q.q.q.q.q.q.q.q.OXOXOXOXOXOXOXOXOXOX",
"OXOXOXOXOXq.q.q.q.q.<.L 5 p } q.q.q.q.q.q.OXOXOXOXOX- - - - , h p.~.XXXXoXoXoXoXoXoX{.v.q.q.q.q.q.q.q.q.q.q.OXOXOXOXOXOXOXOXOXOX",
"OXOXOXOXOXq.q.q.q.$.V , j ..q.q.q.q.q.OXOXOXOXOXOXOX- : - - - - : OXOXOXoXoXoXoXoXXXXXC.q.q.q.q.q.q.q.q.q.q.OXOXOXOXOXOXOXOXOXOX",
"OXOXOXOXOXq.q.<.) d 1 N $.q.q.q.q.OXOXOXOXOXOXOXOXOXOX: - - - - : OXOXOXOXXXoXoXXXXXXXJ.q.q.q.q.q.q.q.q.q.q.OXOXOXOXOXOXOXOXOXOX",
"OXOXOXOXOXR L v 1 r L 4.q.q.q.OXOXOXOXOXOXOXOXOXOXOXOX: - - - - : OXOXOXOXOXoXoXXXXXXXQ.q.q.q.q.q.q.q.q.q.q.OXOXOXOXOXOXOXOXOXOX",
"OXOXOXOXOXp p j F @.q.q.q.OXOXOXOXOXOXOXOXOXOXOXOXOXOXOX- - - - : OXOXOXOXOXOXXXoXoXoXW.e.e.q.q.q.q.q.q.q.q.OXOXOXOXOXOXOXOXOXOX",
"OXOXOXOXOXOX:.6.q.q.q.OXOXOXOXOXOXOXOXOXOXOXOXOXOXOXOXOX- - - - : : OXOXOXOXOXOXoXoXoXW.q.6.q.q.q.q.q.q.q.q.OXOXOXOXOXOXOXOXOXOX",
"OXOXOXOXOXOXOXOXOXOXOXOXOXOXOXOXOXOXOXOXOXOXOXOXOXOXOXOXOX: : : - - OXOXOXOXOXOXoXoXXXY.q.q.q.q.q.q.q.q.q.OXOXOXOXOXOXOXOXOXOXOX",
"OXOXOXOXOXOXOXOXOXOXOXOXOXOXOXOXOXOXOXOXOXOXOXOXOXOXOXOXOXOX: : - - : OXOXOXOXOXoXXXXXS.q.q.q.q.q.q.q.q.q.OXOXOXOXOXOXOXOXOXOXOX",
"OXOXOXOXOXOXOXOXOXOXOXOXOXOXOXOXOXOXOXOXOXOXOXOXOXOXOXOXOXOXOXOXOX: OXOXOXOXOXOXoXoXXXM.q.q.q.q.q.q.q.q.q.OXOXOXOXOXOXOXOXOXOXOX",
"OXOXOXOXOXOXOXOXOXOXOXOXOXOXOXOXOXOXOXOXOXOXOXOXOXOXOXOXOXOXOXOXOXOXOXOXOXOXOXOXXXXX(.h.q.q.q.q.q.q.q.q.OXOXOXOXOXOXOXOXOXOXOXOX",
"OXOXOXOXOXOXOXOXOXOXOXOXOXOXOXOXOXOXOXOXOXOXOXOXOXOXOXOXOXOXOXOXOXOXOXOXOXOXOXOXXXXXA.q.q.q.q.q.q.q.q.q.OXOXOXOXOXOXOXOXOXOXOXOX",
"OXOXOXOXOXOXOXOXOXOXOXOXOXOXOXOXOXOXOXOXOXOXOXOXOXOXOXOXOXOXOXOXOXOXOXOXOXOXOXOXXX(.z.q.q.q.q.q.q.q.q.q.OXOXOXOXOXOXOXOXOXOXOXOX",
"OXOXOXOXOXOXOXOXOXOXOXOXOXOXOXOXOXOXOXOXOXOXOXOXOXOXOXOXOXOXOXOXOXOXOXOXOXOXOXOX{.B.q.q.q.q.q.q.q.q.q.OXOXOXOXOXOXOXOXOXOXOXOXOX",
"OXOXOXOXOXOXOXOXOXOXOXOXOXOXOXOXOXOXOXOXOXOXq.q.q.q.q.q.q.OXOXOXOXOXOXOXOXOXOXOXY.f.q.q.q.q.q.q.q.q.OXOXOXOXOXOXOXOXOXOXOXOXOXOX",
"OXOXOXOXOXOXOXOXOXOXOXOXOXOXOXOXOXOXOXOXOXOXOXq.q.q.q.q.q.q.q.OXOXOXOXOXOXOXOXOXz.q.q.q.q.q.q.q.q.q.OXOXOXOXOXOXOXOXOXOXOXOXOXOX",
"OXOXOXOXOXOXOXOXOXOXOXOXOXOXOXOXOXOXOXOXOXOXOXOXOXq.q.q.q.q.q.q.OXOXOXOXOXOXOXq.q.q.q.q.q.q.q.q.q.OXOXOXOXOXOXOXOXOXOXOXOXOXOXOX",
"OXOXOXOXOXOXOXOXOXOXOXOXOXOXOXOXOXOXOXOXOXOXOXOXOXq.q.q.q.q.q.q.q.OXOXOXOXOXq.q.q.q.q.q.q.q.q.q.OXOXOXOXOXOXOXOXOXOXOXOXOXOXOXOX",
"OXOXOXOXOXOXOXOXOXOXOXOXOXOXOXOXOXOXOXOXOXOXOXOXOXOXq.q.q.q.q.q.q.OXOXOXOXq.q.q.q.q.q.q.q.q.q.OXOXOXOXOXOXOXOXOXOXOXOXOXOXOXOXOX",
"OXOXOXOXOXOXOXOXOXOXOXOXOXOXOXOXOXOXOXOXOXOXOXOXOXOXq.q.q.q.q.q.q.q.q.q.q.q.q.q.q.q.q.q.q.q.OXOXOXOXOXOXOXOXOXOXOXOXOXOXOXOXOXOX",
"OXOXOXOXOXOXOXOXOXOXOXOXOXOXOXOXOXOXOXOXOXOXOXOXOXOXOXq.q.q.q.q.q.q.q.q.q.q.q.q.q.q.q.q.q.OXOXOXOXOXOXOXOXOXOXOXOXOXOXOXOXOXOXOX",
"OXOXOXOXOXOXOXOXOXOXOXOXOXOXOXOXOXOXOXOXOXOXOXOXOXOXOXOXq.q.q.q.q.q.q.q.q.q.q.q.q.q.q.OXOXOXOXOXOXOXOXOXOXOXOXOXOXOXOXOXOXOXOXOX",
"OXOXOXOXOXOXOXOXOXOXOXOXOXOXOXOXOXOXOXOXOXOXOXOXOXOXOXOXOXq.q.q.q.q.q.q.q.q.q.q.q.OXOXOXOXOXOXOXOXOXOXOXOXOXOXOXOXOXOXOXOXOXOXOX",
"OXOXOXOXOXOXOXOXOXOXOXOXOXOXOXOXOXOXOXOXOXOXOXOXOXOXOXOXOXq.q.q.q.q.q.q.q.q.q.OXOXOXOXOXOXOXOXOXOXOXOXOXOXOXOXOXOXOXOXOXOXOXOXOX",
"OXOXOXOXOXOXOXOXOXOXOXOXOXOXOXOXOXOXOXOXOXOXOXOXOXOXOXOXOXq.q.q.q.q.q.q.OXOXOXOXOXOXOXOXOXOXOXOXOXOXOXOXOXOXOXOXOXOXOXOXOXOXOXOX",
"OXOXOXOXOXOXOXOXOXOXOXOXOXOXOXOXOXOXOXOXOXOXOXOXOXOXOXOXq.q.q.q.q.q.q.OXOXOXOXOXOXOXOXOXOXOXOXOXOXOXOXOXOXOXOXOXOXOXOXOXOXOXOXOX",
"OXOXOXOXOXOXOXOXOXOXOXOXOXOXOXOXOXOXOXOXOXOXOXOXOXOXOXOXq.q.q.q.q.q.q.OXOXOXOXOXOXOXOXOXOXOXOXOXOXOXOXOXOXOXOXOXOXOXOXOXOXOXOXOX",
"OXOXOXOXOXOXOXOXOXOXOXOXOXOXOXOXOXOXOXOXOXOXOXOXOXOXOXOXq.q.q.q.q.q.OXOXOXOXOXOXOXOXOXOXOXOXOXOXOXOXOXOXOXOXOXOXOXOXOXOXOXOXOXOX",
"OXOXOXOXOXOXOXOXOXOXOXOXOXOXOXOXOXOXOXOXOXOXOXOXOXOXOXOXq.q.q.q.q.q.OXOXOXOXOXOXOXOXOXOXOXOXOXOXOXOXOXOXOXOXOXOXOXOXOXOXOXOXOXOX",
"OXOXOXOXOXOXOXOXOXOXOXOXOXOXOXOXOXOXOXOXOXOXOXOXOXOXOXOXq.q.q.q.q.OXOXOXOXOXOXOXOXOXOXOXOXOXOXOXOXOXOXOXOXOXOXOXOXOXOXOXOXOXOXOX",
"OXOXOXOXOXOXOXOXOXOXOXOXOXOXOXOXOXOXOXOXOXOXOXOXOXOXOXOXq.q.q.q.q.OXOXOXOXOXOXOXOXOXOXOXOXOXOXOXOXOXOXOXOXOXOXOXOXOXOXOXOXOXOXOX",
"OXOXOXOXOXOXOXOXOXOXOXOXOXOXOXOXOXOXOXOXOXOXOXOXOXOXOXOXq.q.q.q.OXOXOXOXOXOXOXOXOXOXOXOXOXOXOXOXOXOXOXOXOXOXOXOXOXOXOXOXOXOXOXOX",
"OXOXOXOXOXOXOXOXOXOXOXOXOXOXOXOXOXOXOXOXOXOXOXOXOXOXOXq.q.q.q.OXOXOXOXOXOXOXOXOXOXOXOXOXOXOXOXOXOXOXOXOXOXOXOXOXOXOXOXOXOXOXOXOX",
"OXOXOXOXOXOXOXOXOXOXOXOXOXOXOXOXOXOXOXOXOXOXOXOXOXOXOXq.q.OXOXOXOXOXOXOXOXOXOXOXOXOXOXOXOXOXOXOXOXOXOXOXOXOXOXOXOXOXOXOXOXOXOXOX",
"OXOXOXOXOXOXOXOXOXOXOXOXOXOXOXOXOXOXOXOXOXOXOXOXOXOXOXOXOXOXOXOXOXOXOXOXOXOXOXOXOXOXOXOXOXOXOXOXOXOXOXOXOXOXOXOXOXOXOXOXOXOXOXOX",
"OXOXOXOXOXOXOXOXOXOXOXOXOXOXOXOXOXOXOXOXOXOXOXOXOXOXOXOXOXOXOXOXOXOXOXOXOXOXOXOXOXOXOXOXOXOXOXOXOXOXOXOXOXOXOXOXOXOXOXOXOXOXOXOX",
"OXOXOXOXOXOXOXOXOXOXOXOXOXOXOXOXOXOXOXOXOXOXOXOXOXOXOXOXOXOXOXOXOXOXOXOXOXOXOXOXOXOXOXOXOXOXOXOXOXOXOXOXOXOXOXOXOXOXOXOXOXOXOXOX"
};
