/* XPM */
static char *_5c8634c7bf547f7faa8b719093fc2a4VqPnva0LTfO8dFde[] = {
/* columns rows colors chars-per-pixel */
"64 64 189 2 ",
"   c None",
".  c #2D2B30",
"X  c #2D2C31",
"o  c #2D2E33",
"O  c #2E353C",
"+  c #2E424D",
"@  c #305263",
"#  c #305768",
"$  c #305D70",
"%  c #316176",
"&  c #316E87",
"*  c #327089",
"=  c #327995",
"-  c #327B97",
";  c #006DA6",
":  c #016DA6",
">  c #016EA7",
",  c #016FA8",
"<  c #026FA8",
"1  c #0270A8",
"2  c #0371A9",
"3  c #0372AA",
"4  c #0771A9",
"5  c #0472AA",
"6  c #0472AB",
"7  c #0473AB",
"8  c #0573AB",
"9  c #0574AC",
"0  c #0674AC",
"q  c #0675AC",
"w  c #0675AD",
"e  c #0776AD",
"r  c #0776AE",
"t  c #0878AF",
"y  c #0978B0",
"u  c #0979B0",
"i  c #0A7AB1",
"p  c #0A7BB1",
"a  c #0B7BB2",
"s  c #0B7CB3",
"d  c #0C7CB3",
"f  c #0D7EB4",
"g  c #0D7FB5",
"h  c #0E7FB5",
"j  c #1F7FB1",
"k  c #0E80B6",
"l  c #0F80B6",
"z  c #0F81B7",
"x  c #0F82B7",
"c  c #1081B7",
"v  c #1183B8",
"b  c #1184B9",
"n  c #1284B9",
"m  c #1285BA",
"M  c #1386BB",
"N  c #1387BB",
"B  c #1488BC",
"V  c #168ABE",
"C  c #178BBF",
"Z  c #3387A7",
"A  c #338CAD",
"S  c #3491B4",
"D  c #178CC0",
"F  c #188DC1",
"G  c #198EC1",
"H  c #1B90C3",
"J  c #1B91C4",
"K  c #1D93C5",
"L  c #1D93C6",
"P  c #1D94C6",
"I  c #1E94C6",
"U  c #1E94C7",
"Y  c #1E95C7",
"T  c #1F95C7",
"R  c #2198CA",
"E  c #2199CA",
"W  c #2199CB",
"Q  c #2299CB",
"!  c #239ACC",
"~  c #239BCC",
"^  c #239CCD",
"/  c #249CCD",
"(  c #249DCE",
")  c #259ECE",
"_  c #269FCF",
"`  c #349DC3",
"'  c #269FD0",
"]  c #27A0D1",
"[  c #28A1D1",
"{  c #28A2D2",
"}  c #29A3D3",
"|  c #2AA4D4",
" . c #2AA5D4",
".. c #2CA7D6",
"X. c #2DA8D7",
"o. c #2DA9D8",
"O. c #2EA9D8",
"+. c #2EAAD9",
"@. c #2FAAD9",
"#. c #2FABDA",
"$. c #35ACD7",
"%. c #30ACDA",
"&. c #30ACDB",
"*. c #30ADDB",
"=. c #31ADDB",
"-. c #36AFDB",
";. c #31ADDC",
":. c #31AEDC",
">. c #32AEDC",
",. c #32AFDD",
"<. c #33B0DD",
"1. c #33B0DE",
"2. c #34B1DF",
"3. c #36B1DE",
"4. c #34B2DF",
"5. c #35B2DF",
"6. c #36B3DF",
"7. c #35B2E0",
"8. c #35B3E0",
"9. c #36B3E0",
"0. c #36B3E1",
"q. c #36B4E0",
"w. c #36B4E1",
"e. c #37B4E1",
"r. c #38B5E1",
"t. c #3AB5E2",
"y. c #3BB6E2",
"u. c #3CB6E2",
"i. c #3DB6E2",
"p. c #3EB7E2",
"a. c #4A98C1",
"s. c #40B7E2",
"d. c #41B8E2",
"f. c #43B8E3",
"g. c #45B9E3",
"h. c #46B9E3",
"j. c #4DBCE4",
"k. c #51BDE4",
"l. c #55BFE5",
"z. c #58BFE5",
"x. c #59C0E5",
"c. c #60C2E6",
"v. c #67C4E7",
"b. c #6AC5E7",
"n. c #75C9E9",
"m. c #77CAE9",
"M. c #7ACBE9",
"N. c #7DCCEA",
"B. c #82CEEA",
"V. c #8BD0EB",
"C. c #8ED2EC",
"Z. c #91D2EC",
"A. c #92D3EC",
"S. c #95D4EC",
"D. c #9ED7EE",
"F. c #A6CDE2",
"G. c #A8CEE2",
"H. c #AACFE3",
"J. c #A2D8EE",
"K. c #A3D9EE",
"L. c #A7DAEF",
"P. c #AADBEF",
"I. c #B4D5E6",
"U. c #B8D7E8",
"Y. c #AEDCF0",
"T. c #B1DDF0",
"R. c #B3DEF0",
"E. c #B5DFF0",
"W. c #B7DFF1",
"Q. c #BBE0F1",
"!. c #BBE1F1",
"~. c #C0DCEB",
"^. c #C8E0ED",
"/. c #C0E2F2",
"(. c #C2E3F2",
"). c #C4E4F2",
"_. c #C8E5F3",
"`. c #D2E6F1",
"'. c #D1E8F4",
"]. c #D4E9F4",
"[. c #D5E9F4",
"{. c #D8EAF4",
"}. c #D8EAF5",
"|. c #D9EBF5",
" X c #DAEAF4",
".X c #DAEBF5",
"XX c #DBECF5",
"oX c #DCECF5",
"OX c #DDECF5",
/* pixels */
"                                                                                                                                ",
"                                                                                                                                ",
"                                                                w.w.w.w.w.w.                                                    ",
"                                                      w.w.w.w.w.w.w.w.w.w.w.w.w.w.w.w.                                          ",
"                                                w.w.w.w.w.w.w.w.w.w.w.w.w.w.w.w.w.w.w.w.w.w.                                    ",
"                                            w.w.w.w.w.w.w.w.w.w.w.w.w.w.w.w.w.w.w.w.w.w.w.w.w.w.                                ",
"                                        w.w.w.w.w.w.w.w.w.w.w.w.w.w.w.w.w.w.w.w.w.w.w.w.w.w.w.w.w.w.                            ",
"                    w.w.w.w.w.w.w.w.w.w.w.w.w.w.w.w.w.w.w.w.w.w.w.w.w.w.w.w.w.w.w.w.w.w.w.w.w.w.w.w.w.                          ",
"                w.w.w.w.w.w.w.w.w.w.w.w.w.w.w.w.w.w.w.w.w.w.w.w.w.w.w.w.w.w.w.w.w.w.w.w.w.w.w.w.w.w.w.w.                        ",
"            w.w.w.w.w.w.w.w.w.w.w.w.w.w.4.>.=.=.>.1.w.7.w.w.w.w.w.w.w.w.w.w.w.w.w.w.w.w.w.w.w.w.w.w.w.w.w.                      ",
"          w.w.w.w.w.w.w.w.w.w.w.4.X.R N a w w 5 w a N W +.w.w.w.w.w.w.w.w.w.w.w.w.w.w.w.w.w.w.w.w.w.w.w.w.w.                    ",
"          w.w.w.w.w.w.w.w.w.1./ f 2 > 5 a l N N s w > > 5 N  .w.w.w.w.w.w.w.w.w.w.w.w.w.w.w.w.w.w.w.w.w.w.w.w.                  ",
"          w.w.w.w.w.w.w.w. .f > 5 l / =.4.w.w.w.4.=. .V w > 2 J 4.7.w.w.w.w.w.w.w.w.w.w.w.w.w.w.w.w.w.w.w.w.w.w.                ",
"              w.w.w.w.w. .w > a | 4.w.w.w.w.w.w.w.w.w.w.#.K w 1 c %.w.w.w.w.w.w.w.w.w.w.w.w.w.t.w.w.w.w.w.w.w.w.                ",
"                  w.w.w.1.V , w W 4.w.w.w.w.w.w.w.w.w.w.w.w.=.D 5 D 7.w.w.w.w.w.w.w.w.4.S * A 4.w.w.w.w.w.w.w.w.w.              ",
"                    w.w.w.w./ a 2 d _ 4.w.w.w.w.w.w.w.w.w.w.w.w.>.%.w.w.w.w.w.w.w.w.w.Z O . . - w.w.w.w.w.w.w.w.w.              ",
"                    w.w.w.w.w.1.K w , v ..7.w.w.w.w.w.w.w.w.w.w.w.w.w.w.w.w.w.w.w.w.w.# . . . % 7.w.w.w.w.w.w.w.w.w.            ",
"                    w.w.w.w.w.w.w.X.N 2 5 G +.w.w.w.w.w.w.w.w.w.w.w.w.w.w.w.w.w.w.w.w.$ . . . = w.w.w.w.w.w.w.w.w.w.            ",
"                    w.w.w.w.w.w.w.w.7.] c > 5 N ] +.#.=.4.w.w.w.w.w.w.w.w.w.w.w.w.w.7.` @ + & $.w.w.w.w.w.w.w.w.w.w.            ",
"                    w.w.w.w.w.w.w.w.w.w.4.{ N w > 2 q q ^ w.w.w.w.w.w.w.w.w.w.w.w.w.t.6.4.<.w.w.w.w.w.w.w.w.w.w.w.w.            ",
"                    w.w.w.w.w.w.w.w.w.w.w.w.4.=.] Y Y W =.w.t.7.w.w.w.w.w.w.w.w.w.w.w.w.w.w.w.w.w.w.w.w.w.w.w.w.w.w.            ",
"                    w.w.w.w.w.w.w.w.w.w.w.w.w.w.w.8.w.w.w.i.i.t.w.w.w.w.w.w.w.w.w.w.w.w.w.7.w.w.w.w.w.w.w.w.w.w.w.              ",
"                    w.w.w.w.w.w.w.w.w.w.w.w.w.w.w.f.c.Z.E.(.).(.P.N.k.t.w.w.w.w.w.w.w.w.7.G J 1.w.w.w.w.w.w.w.w.w.              ",
"                    w.w.w.w.w.w.w.w.w.w.w.w.w.i.m.(.XXOXOXOXOXOXOXOX].T.v.i.w.w.w.w.w.w.4.s > G 4.w.w.w.w.w.w.w.                ",
"                    w.w.w.w.w.w.w.w.w.w.w.w.f.K.{.OXOXOXOXOXOXOXOXOXOXOX{.Y.x.t.w.w.w.w.w.] w > G 4.w.w.w.w.w.w.                ",
"                    w.w.w.w.w.w.w.w.w.w.w.i.K.XXOXOXOXOXOXOXOXOXOXOXOXOXOXOX'.B.p.w.w.w.w.w.] w 5 Y w.w.w.w.w.w.w.              ",
"                    w.w.w.w.w.w.w.w.w.w.w.m.].OXOXOXOXOXOXOXOXOXOXOXOXOXOXOXOX].A.h.w.w.w.w.w.^ e 5 / 7.w.w.w.w.w.              ",
"                    w.w.w.w.w.w.w.w.w.w.i.W.OXOXOXOXOXOXOXOXOX[.~.I.H.F.G.U. XOXOXD.h.w.w.w.w.w.' y 5 W 4.w.w.w.w.w.            ",
"                    w.w.w.w.w.w.w.w.w.w.b.[.OXOXOXOXOXOXOXOX~.a.j < ; ; > >           w.w.w.w.w.7. .a 2 Y >.w.w.w.w.w.          ",
"                    w.w.w.w.w.w.w.w.w.w.C.OXOXOXOXOXOXOX      > > ; ; ; > >               w.w.w.t.w.+.l 2 V =.w.w.w.w.          ",
"                    w.w.w.w.w.w.w.w.w.w.L.XXOXOXOXOXOX        > > ; ; ; >                     w.w.w.7.#.V > l / 4.7.w.          ",
"                    w.w.w.w.w.w.w.w.w.w.Q.XXOXOXOXOX          > ; ; ; > >                         w.w.w.4.Y t 2 v Y W           ",
"                    w.w.w.w.w.w.w.w.w.w.!.OXOXOXOX            ; ; ; > ;                               w.w.w.+.H l a t           ",
"                    w.w.w.w.w.w.w.w.w.w.!.OXOXOX            > ; ; ; > >                                   w.7.w.w.>.            ",
"                      w.w.w.w.w.w.w.w.w.R.OXOXOX            > ; ; ; ;                                                           ",
"                      w.w.w.w.w.w.w.w.7.D.OXOXOX          > > > ; ;                                                             ",
"                      w.w.w.w.w.w.w.w.w.M.XXOXOX            >                                                                   ",
"                        w.w.w.w.w.w.w.w.j.(.OXOX                                                                                ",
"                        w.w.w.w.w.w.w.w.w.S.OXOX                                                                                ",
"                        w.w.w.w.w.w.w.w.w.x.).OX                                                                                ",
"                          w.w.w.w.w.w.w.w.w.C.{.                                                                                ",
"                            w.w.w.w.w.w.w.w.f.R.                      w.w.w.w.w.w.w.                                            ",
"                            w.w.w.w.w.w.w.w.w.x.                  w.w.w.w.w.w.w.w.                                              ",
"                              w.w.w.w.w.w.w.w.w.w.              w.w.w.w.w.w.w.                                                  ",
"                                w.w.w.w.w.w.w.w.w.w.          w.w.w.w.w.w.w.w.                                                  ",
"                                  w.w.w.w.w.w.w.w.w.w.        w.w.w.w.w.w.w.                                                    ",
"                                    w.w.w.w.w.w.w.w.w.w.w.w.w.w.w.w.w.w.w.w.                                                    ",
"                                      w.w.w.w.w.w.w.w.w.w.w.w.w.w.w.w.w.w.                                                      ",
"                                          w.w.w.w.w.w.w.w.w.w.w.w.w.w.w.                                                        ",
"                                              w.w.w.w.w.w.w.w.w.w.w.w.                                                          ",
"                                                  w.w.w.w.w.w.w.w.w.w.                                                          ",
"                                                        w.w.w.w.w.w.w.                                                          ",
"                                                          w.w.w.w.w.w.w.                                                        ",
"                                                          w.w.w.w.w.w.w.                                                        ",
"                                                            w.w.w.w.w.w.                                                        ",
"                                                            w.w.w.w.w.w.                                                        ",
"                                                              w.w.w.w.w.                                                        ",
"                                                              w.w.w.w.w.                                                        ",
"                                                                w.w.w.w.                                                        ",
"                                                                  w.w.w.w.                                                      ",
"                                                                      w.w.                                                      ",
"                                                                                                                                ",
"                                                                                                                                ",
"                                                                                                                                "
};
