/* XPM */
static char *_645014181013[] = {
/* columns rows colors chars-per-pixel */
"64 64 4 1 ",
"  c #6F9FC9",
". c #1186DD",
"X c #0069B7",
"o c #0074CA",
/* pixels */
"  .XXXooo.. ...XXXXXX..XXXXXXXX........XX.. ...XXXXXX..XXXXXXXX.",
"  .XXXXXXX.    XXXX........XXX.  .XXXXXXXX.    XXXX........XXX. ",
" .XXXXXXX.....  ...XXXXXXX....  ...XXXXXX.....  ...XXXXXXX....  ",
".XXXX  .......X. XXXXXXXX.X.....XX...  .......X. XXXXXXXX.X.....",
".XXXXXX  .X.XXXXXXXXXXXX.XXXXX..XXX.XXX  .X.XXXXXXXXXXXX.XXXXX..",
"XXXX....XXXX .XXXXXXXX..XXXXXXXX.XXX..XXXXXX .XXXXXXXX..XXXXXXXX",
"XXXXX..XXXXXX  XXXXXX.XXXXXXXXX.XXXXX..XXXXXX  XXXX...XXXXXXXXX.",
"XXXXXX.XXXXXXX...XXX...XXXXX...XXXXXXX.XXXXXXX...XX....XXXXX...X",
"XXXX....XXXXXX..X...XXX..XX.XX  XXXX....XXXXXX..X..XXXX..XX.XX  ",
"X  .XXXX......XXXXXXXXXXX.X.XXXX   .XXXX......XXXXXXXXXXX.X.XXXX",
"o.XXXXXXXXXXXX.XXXXXXXXXXX.XXXXXX.XXXXXXXXXXXX.XXXXXXXXXXX.XXXXX",
"X..XXXXXXXXX..  XXXXXXXXX.  XXXXX..XXXXXXXXX..  XXXXXXXXX.  XXXX",
".X.XXX   XX..XX   X.....  XXXXXXXX.XXX   XX..XX   X.....  XXXXXX",
"XXX...XXXX..XXX.....XXXXXX..XXXXXX....XXXX..XXX.....XXXXXX..XXXX",
"XXXX..XXX.XXXXXXXXXXXXXXXXXX.XXX..XX..XXX.XXXXXXXXXXXXXXXXXX.XXX",
"XXXXX.XXX.XXXXXXXXXXXXXXXXXXX....XXXX.XXX..XXXXXX..XXXXXXXXXX.XX",
"X...X....XX.X....X.....XXXX...XXX...X....XX.X....X.....XXX...XXX",
"X...  XXXXX..XXXXXX.XX...XX.XXXXX...  XXXXX..XXXXXX.XX..XX..XXXX",
"X..XX  .XX..XXXXXXX.XXXXX...   XX..XX  .XX..XXXXXXX.XXX..XX.   X",
" .XXXXX..X.XX.XX  X.XXXXXXX....  .XXXXX..X.XX.XX  X.XXXXX...... ",
"X...XXXX...X..    X..X.......XXXX...XXXX...X..    X..X.......XXX",
"XXXX....XX..XXXX..XX..XXX..XXXXXXXXX....XX..XXXX..XX..XXX..XXXXX",
"XX..XXXXXXX XXXXX.XX..XX..XXXXXXXX..XXXXXXX XXXXX.XX..XX..XXXXXX",
"X..XXXXXXX  .X.... ......X..XXXXX..XXXXXXX  .X.... XX....X..XXXX",
"   ..XXXXX.....XX...XXX.....XX.    ..XXXXX.....XX..XXXX.....XX. ",
"....XXX.......XXXX.XXX.   ...X......XXX.......XXXX.XXX.   ...X..",
".XXX..X. XXXX.XXXXXXX. ..XXXX.XX.XXX..X. XXXX.XXXXXXX. ..XXXX.XX",
"XXXXX.. XXXXXX.......XX....XXX..XXXXX.. XXXXXX.......XX....XXX..",
"XXX...XXXXXXXX..  .XXXXX..XXX.XXXXX...XXXXXXXX..  .XXXXX..XXX.XX",
"XXXX..XXXXXXX..... XXXXXXX....XXXXXX..XXXXXXX..... XXXXXXX....XX",
"XXXXX.XXXXXX.XXXX..XXXX  ..X....XXXXX.XXXXXX.XXXX..XXXX  ..X....",
"..XXX....X..X..XXX.XXX.XXXXXXX....XXX....X..X..XXX.XXX.XXXXXXX..",
".......XX.. ...XXXXXX..XXXXXXXX........XX.. ...XXXXXX..XXXXXXXX.",
" .XXXXXXXX.    XXXX........XXX.  .XXXXXXXX.    XXXX........XXX. ",
"...XXXXXX.....  ...XXXXXXX....  ...XXXXXX.....  ...XXXXXXX....  ",
"XX...  .......X. XXXXXXXX.X.....XX...  .......X. XXXXXXXX.X.....",
"XXX.XXX  .X.XXXXXXXXXXXX.XXXXX..XXX.XXX  .X.XXXXXXXXXXXX.XXXXX..",
".XXX..XXXXXX .XXXXXXXX..XXXXXXXX.XXX..XXXXXX .XXXXXXXX..XXXXXXXX",
"XXXXX..XXXXXX  XXXXXX.XXXXXXXXX.XXXXX..XXXXXX  XXXX...XXXXXXXXX.",
"XXXXXX.XXXXXXX...XX....XXXXX...XXXXXXX.XXXXXXX...XXXX..XXXXX...X",
"XXXX....XXXXXX..X...XXX..XX.XX  XXXX....XXXXXX..X..XXXX..XX.XX  ",
"   .XXXX......XXXXXXXXXXX.X.XXXX   .XXXX......XXXXXXXXXXX.X.XXXX",
"X.XXXXXXXXXXXX.XXXXXXXXXXX.XXXXXX.XXXXXXXXXXXX.XXXXXXXXXXX.XXXXX",
"X..XXXXXXXXX..  XXXXXXXXX.  XXXXX..XXXXXXXXX..  XXX...XXX.  XXXX",
"XX.XXX   XX..XX   XXX...  XXXXXXXX.XXX   XX..XX   XXX...  XXXXXX",
"XXX...XXXX..XXX.......XXXX..XXXXXXX...XXXX..XXX....XXXXXXX..XXXX",
"XXXX..XXX.XXXXXXXXXX..XXXXXX.XXXXXXX..XXX.XXXXXXXXX.XXXXXXXX.XXX",
"XXXXX.XXX.XXXXXXXXXXX.XXXXXXX.XXXXXXX.XXX.XXXXXXXXXX.XXXXXXXX.XX",
"X...X....XX.X......XX..XXX...XXXX...X..................XXX...XXX",
"X...  XXXXX..XXXXX.XXX.XXX..XXXXX...  XXXXX..XXXXXX.XX..XX..XXXX",
"X..XX  .XX..XXXXXX..XXXXXXX.   XX..XX  .XX..XXXXXXX..XXX....   X",
" .XXXXX..X.XX.XX  ..XXXXXXX....  .XXXXX..X.XX.XX  XXX.XXXXX.... ",
"X...XXXX...X..    X..X.......XXXX...XXXX...X..    XX.X.......XXX",
"XXXX....XX..XXXX..XX..XXX..XXXXXXXXX....XX..XXXX..XX..XXX..XXXXX",
"XX..XXXXXXX XXXXX.XX..XX..XXXXXXXX..XXXXXXX XXXXX.XX..XX..XXXXXX",
"X..XXXXXXX  .X.... XX....X..XXXXX..XXXXXXX  .X.... .X....X..XXXX",
"   ..XXXXX.....XX..XXXX.....XX.    ..XXXXX.....XX...XXX.....XX. ",
"....XXX.......XXXX.XXX.   ...X......XXX.......XXXX.XXX.   ...X..",
".XXX..X. XXXX.XXXXXXX. ..XXXX.XX.XXX..X. XXXX.XXXXXXX. ..XXXX.XX",
"XXXXX.. XXXXXX.......XX....XXX..XXXXX.. XXXXXX.......XX....XXX..",
"XXX...XXXXXXXX..  .XXXXX..XXX.XXXXX...XXXXXXXX..  .XXXXX..XXX.XX",
"XXXX..XXXXXXX..... XXXXXXX....XXXXXX..XXXXXXX..... XXXXXXX....XX",
"XXXXX.XXXXXX.XXXX..XXXX  ..X....XXXXX.XXXXXX.XXXX..XXXX  ..X....",
" XXXX....X..X..XXX.XXX.XXXXXXX....XXX....X..X..XXX.XXX.XXXXXXX.."
};
