/* XPM */
static char *_645014168030[] = {
/* columns rows colors chars-per-pixel */
"64 64 3 1 ",
"  c #E6B45C",
". c #D79F50",
"X c #DCA957",
/* pixels */
"      .XXXXXX     .X..XX.    .XX      .XXXXXX     .X..XX.    .XX",
"   ..X  .   .X    .XX     .....    ..X  .   .X    .XX     ..... ",
"X...X.XX ..XX  X.......XX. ..XXXX...X.XX ..XX  X.......XX. ..XXX",
"    XX  .X  ...   ..X...XXX.....    XX  .X  ...   ..X...XXX.....",
".XX   .XXXXX.      .XX   ..XXXXX.XX   .XXXXX.      .XX   ..XXXXX",
"   X...X   XXX..XXX   XX    X      X...X   XXX..XXX   XX    X   ",
"X..X       XXXXX   .XXX.X     .XX..X       XXXXX   .XXX.X     .X",
"  XXX.......XXXXXXXX..........    XXX.......XXXXXXXX..........  ",
"...XXXXXXX....   XX      .....XX...XXXXXXX....   XX      .....XX",
".X..  .   X.............X XXX. ..X..  .   X.............X XXX. .",
"  XX..      ..X    .         X    XX..      ..X    .         X  ",
".X  XX......XXXX    .............X  XX......XXXX    ............",
".......   ..  ...... X. ...............   ..  ...... X. ........",
"XXXX  XX.. ..      .XXX    XXXXXXXXX  XX.. ..      .XXX    XXXXX",
" ...... XXX     ...X.....    .X  ...... XXX     ...X.....    .X ",
".    .. .       XX  . ....X......    .. .       XX  . ....X.....",
"  XX.  .............       XXX    XX.  .............       XXX  ",
".....XX..   ..          .............XX..   ..          ........",
"   .X  XXXX  ..........X    ..     .X  XXXX  ..........X    ..  ",
"XXXXXXXXXX     XXXX.. XXX.......XXXXXXXXXX     XXXX.. XXX.......",
"..    .........X..  ...XXXX    X..    .........X..  ...XXXX    X",
"    X            .. ........        X            .. ........    ",
"XXXXXXXXX...       ...XXX       XXXXXXXXX...       ...XXX       ",
".XXX  XX....XXXXX...           ..XXX  XX....XXXXX...           .",
". ...           .XXXX  ....XXXX.. ...           .XXXX  ....XXXX.",
" X       XX...XX  ..      .  ..X X       XX...XX  ..      .  ..X",
"    XXXXX    XX.... XX..   .....    XXXXX    XX.... XX..   .....",
"...  ....X         ................  ....X         .............",
". ....... ...XXX.XXXXX     XXXXX. ....... ...XXX.XXXXX     XXXXX",
"X               .XXXX.XX...     X               .XXXX.XX...     ",
"...         .....        XXXXX.....         .....        XXXXX..",
"....X....XXX..........   ..XX  .....X....XXX..........   ..XX  .",
"      .XXXXXX     .X..XX.    .XX      .XXXXXX     .X..XX.    .XX",
"   ..X  .   .X    .XX     .....    ..X  .   .X    .XX     ..... ",
"X...X.XX ..XX  X.......XX. ..XXXX...X.XX ..XX  X.......XX. ..XXX",
"    XX  .X  ...   ..X...XXX.....    XX  .X  ...   ..X...XXX.....",
".XX   .XXXXX.      .XX   ..XXXXX.XX   .XXXXX.      .XX   ..XXXXX",
"   X...X   XXX..XXX   XX    X      X...X   XXX..XXX   XX    X   ",
"X..X       XXXXX   .XXX.X     .XX..X       XXXXX   .XXX.X     .X",
"  XXX.......XXXXXXXX..........    XXX.......XXXXXXXX..........  ",
"...XXXXXXX....   XX      .....XX...XXXXXXX....   XX      .....XX",
".X..  .   X.............X XXX. ..X..  .   X.............X XXX. .",
"  XX..      ..X    .         X    XX..      ..X    .         X  ",
".X  XX......XXXX    .............X  XX......XXXX    ............",
".......   ..  ...... X. ...............   ..  ...... X. ........",
"XXXX  XX.. ..      .XXX    XXXXXXXXX  XX.. ..      .XXX    XXXXX",
" ...... XXX     ...X.....    .X  ...... XXX     ...X.....    .X ",
".    .. .       XX  . ....X......    .. .       XX  . ....X.....",
"  XX.  .............       XXX    XX.  .............       XXX  ",
".....XX..   ..          .............XX..   ..          ........",
"   .X  XXXX  ..........X    ..     .X  XXXX  ..........X    ..  ",
"XXXXXXXXXX     XXXX.. XXX.......XXXXXXXXXX     XXXX.. XXX.......",
"..    .........X..  ...XXXX    X..    .........X..  ...XXXX    X",
"    X            .. ........        X            .. ........    ",
"XXXXXXXXX...       ...XXX       XXXXXXXXX...       ...XXX       ",
".XXX  XX....XXXXX...           ..XXX  XX....XXXXX...           .",
". ...           .XXXX  ....XXXX.. ...           .XXXX  ....XXXX.",
" X       XX...XX  ..      .  ..X X       XX...XX  ..      .  ..X",
"    XXXXX    XX.... XX..   .....    XXXXX    XX.... XX..   .....",
"...  ....X         ................  ....X         .............",
". ....... ...XXX.XXXXX     XXXXX. ....... ...XXX.XXXXX     XXXXX",
"X               .XXXX.XX...     X               .XXXX.XX...     ",
"...         .....        XXXXX.....         .....        XXXXX..",
"....X....XXX..........   ..XX  .....X....XXX..........   ..XX  ."
};
